<?xml version="1.0" encoding="UTF-8"?>
<svg version="1.1" xmlns="http://www.w3.org/2000/svg" width="512" height="512">
<path d="M0 0 C2.5 2.625 2.5 2.625 4 6 C3.79759235 11.68700193 2.53015473 14.08228173 -1.5625 17.9375 C-13.4538399 30.3058564 -18.98181053 47.02922341 -19 64 C-18.13448151 78.30466014 -13.30490761 90.41045477 -5 102 C-4.53980469 102.64582031 -4.07960938 103.29164063 -3.60546875 103.95703125 C6.38735741 116.71444332 22.36873666 123.5479659 38 126 C55.43673502 127.98002609 72.51945432 122.80196478 86.3125 112.0625 C89.95389033 109.01334868 93.35866732 105.79457943 96.625 102.34765625 C98.66885251 100.34444854 99.94960982 100.00671869 102.8125 99.625 C107.14785402 100.13504165 108.30655341 101.62643562 111 105 C114.68277078 124.64906895 105.46971915 147.91040128 95.05078125 164.01953125 C84.56225268 179.26285943 70.83044415 194.51317797 53 201 C53.40992188 202.1859375 53.81984375 203.371875 54.2421875 204.59375 C57.77293594 215.08894881 60.21839813 224.93350997 61 236 C61.07089844 236.84046875 61.14179688 237.6809375 61.21484375 238.546875 C62.22015537 261.87010466 53.17903843 286.30755734 37.5 303.4375 C35.69891684 305.32918028 33.8599946 307.16440766 32 309 C30.89011719 310.10794922 30.89011719 310.10794922 29.7578125 311.23828125 C9.34926109 330.48810539 -16.11529615 335.81572398 -43.15576172 335.13623047 C-53.9616153 334.61866255 -63.99411713 330.84724676 -74 327 C-74.556875 328.11117188 -75.11375 329.22234375 -75.6875 330.3671875 C-80.08221338 338.9897878 -84.56500896 346.70330389 -91 354 C-91.44214844 354.58394531 -91.88429688 355.16789062 -92.33984375 355.76953125 C-105.50192366 372.8522307 -128.43833538 382.94792773 -149.30712891 386.1015625 C-172.74876048 389.110344 -197.62400986 383.98730505 -217.0859375 370.26953125 C-225.14588379 363.99228086 -232.61051884 356.99130094 -239 349 C-239.55558594 348.30777344 -240.11117187 347.61554688 -240.68359375 346.90234375 C-242 345 -242 345 -242 343 C-243.11632812 343.2165625 -244.23265625 343.433125 -245.3828125 343.65625 C-264.06836872 347.06834225 -282.44340402 347.27608516 -301 343 C-301.69899414 342.83902832 -302.39798828 342.67805664 -303.11816406 342.51220703 C-336.30264232 334.51196575 -363.50810292 313.27775502 -382 285 C-382.40726318 284.38688965 -382.81452637 283.7737793 -383.23413086 283.14208984 C-386.40437053 278.25314771 -388.84196862 273.25611349 -391.0625 267.875 C-391.40684082 267.04605225 -391.75118164 266.21710449 -392.10595703 265.36303711 C-398.61062621 249.39100836 -401.42784001 233.74652095 -401.375 216.5 C-401.37412384 215.79823639 -401.37324768 215.09647278 -401.37234497 214.3734436 C-401.22880874 179.38983991 -387.62778017 147.84246073 -363.25 122.8125 C-337.27881744 97.14212559 -303.78178524 85.6561138 -267.75708008 85.68310547 C-247.20685134 85.81809449 -227.42592278 90.78722402 -209.515625 100.99609375 C-206.444997 102.22148412 -205.10646826 102.05195189 -202 101 C-199.70042819 99.77958916 -199.70042819 99.77958916 -197.4375 98.25 C-176.9986055 85.70454053 -151.01186383 82.16924445 -127.6875 87.6875 C-118.70254558 90.03610834 -110.1984293 93.6730512 -102 98 C-101.97421875 97.30777344 -101.9484375 96.61554688 -101.921875 95.90234375 C-100.34986475 68.78516693 -86.77525848 43.6191258 -67.109375 25.30859375 C-51.60282637 12.21663626 -21.52863918 -6.09301109 0 0 Z M-53 37 C-53.67417969 37.54269531 -54.34835937 38.08539063 -55.04296875 38.64453125 C-73.80360674 54.13929416 -82.98813032 77.42480603 -85.4609375 101.0703125 C-85.97215649 108.05384537 -85.97215649 108.05384537 -83.453125 114.36328125 C-81.45434623 116.34850468 -81.45434623 116.34850468 -79.21875 118.13671875 C-71.43011603 124.6775258 -67.29934674 135.01819641 -63 144 C-62.00365797 146.00182481 -61.00483967 148.00242716 -60 150 C-59.14003418 149.86368164 -59.14003418 149.86368164 -58.26269531 149.72460938 C-29.06244287 145.15657951 -3.16949847 147.21775033 21.5625 164.82421875 C25.6850452 167.95003016 29.43242306 171.24465585 33 175 C34.2073573 176.18849234 35.41575501 177.37592836 36.625 178.5625 C38.97870542 180.91107753 41.12364387 183.24065274 43 186 C61.82025849 180.30439546 75.41695264 163.92031423 84.5 147.1875 C84.82629395 146.5898584 85.15258789 145.9922168 85.48876953 145.37646484 C87.76063879 140.99111637 88.9467554 136.7869967 90 132 C87.25720138 133.07148581 84.55875614 134.19776098 81.87109375 135.40234375 C80.73800781 135.90894531 79.60492188 136.41554688 78.4375 136.9375 C76.76494141 137.69353516 76.76494141 137.69353516 75.05859375 138.46484375 C65.62539381 142.26083373 56.36593337 143.53437562 46.25 143.4375 C45.11256348 143.42847656 43.97512695 143.41945313 42.80322266 143.41015625 C23.69449224 143.01912922 6.48054989 136.60624071 -8 124 C-8.58652344 123.55527344 -9.17304688 123.11054688 -9.77734375 122.65234375 C-24.90771633 110.88427619 -33.55344174 90.62615584 -36 72 C-36.9762949 56.24528033 -35.10582973 42.18300758 -28.98828125 27.51171875 C-27.87795172 25.139673 -27.87795172 25.139673 -28 23 C-36.4121039 23 -47.01205692 31.8259521 -53 37 Z " fill="#000000" transform="translate(401,63)"/>
</svg>
