<?xml version="1.0" encoding="UTF-8"?>
<svg version="1.1" xmlns="http://www.w3.org/2000/svg" width="512" height="512">
<path d="M0 0 C0.6815918 0.21430664 1.36318359 0.42861328 2.06542969 0.64941406 C16.88252732 5.42172821 29.20414887 12.79610926 41 23 C41.86109375 23.67804688 42.7221875 24.35609375 43.609375 25.0546875 C49.46421997 29.81892409 53.80898904 35.97114975 58.1875 42.0625 C58.60346436 42.63983887 59.01942871 43.21717773 59.44799805 43.81201172 C67 54.47881776 67 54.47881776 67 58 C67.86238281 57.7834375 68.72476562 57.566875 69.61328125 57.34375 C94.1396359 51.74956562 118.98944031 55.43948736 140.61328125 68.703125 C146.36168993 72.45330079 151.19436773 77.1328447 156 82 C156.81339844 82.8146875 157.62679688 83.629375 158.46484375 84.46875 C173.49975408 100.30038207 181.65236497 120.82467408 181.10546875 142.6484375 C181.05326172 143.81246094 181.05326172 143.81246094 181 145 C182.051875 145.061875 183.10375 145.12375 184.1875 145.1875 C201.59048319 147.48139058 218.96393255 159.82820206 229.69140625 173.2890625 C245.12301388 193.56971013 249.68896719 216.28849764 246.71875 241.37548828 C243.43204284 261.12841156 230.29457762 280.83091584 214.375 292.5625 C200.99929374 301.5205418 185.50031939 308.15045321 169.17822266 308.11352539 C167.49715927 308.11341209 167.49715927 308.11341209 165.78213501 308.11329651 C164.58817108 308.10813522 163.39420715 308.10297394 162.1640625 308.09765625 C160.92957367 308.0962413 159.69508484 308.09482635 158.42318726 308.09336853 C154.49043325 308.08778272 150.55773672 308.07523275 146.625 308.0625 C143.95442792 308.05691912 141.28385637 308.05292058 138.61328125 308.04882812 C132.07550131 308.03781792 125.53775476 308.02109385 119 308 C119.16134933 308.60475159 119.32269867 309.20950317 119.48893738 309.83258057 C124.74973947 332.1436716 117.82835538 355.04765848 106.20703125 373.91015625 C104.55549877 376.35533134 102.83057772 378.68640954 101 381 C100.40832031 381.75539063 99.81664062 382.51078125 99.20703125 383.2890625 C86.28815396 398.79171525 66.68444396 408.49589601 47 412 C45.48044683 412.08650755 43.95786268 412.12895175 42.4358511 412.13142776 C41.54503037 412.13526891 40.65420964 412.13911005 39.73639435 412.1430676 C38.76695217 412.14220112 37.79751 412.14133463 36.7986908 412.14044189 C35.76157961 412.14341302 34.72446842 412.14638414 33.65592963 412.1494453 C30.17547814 412.15812724 26.69506107 412.15964014 23.21459961 412.16113281 C20.72104824 412.1657614 18.22749759 412.17078612 15.73394775 412.17617798 C8.95472738 412.18930151 2.17552046 412.19578398 -4.60370946 412.20018864 C-8.84031947 412.20295427 -13.07692721 412.20719227 -17.31353569 412.21169281 C-29.05319736 412.22388472 -40.7928572 412.23418339 -52.53252506 412.2375679 C-53.65909484 412.23789725 -53.65909484 412.23789725 -54.8084236 412.23823325 C-55.56122933 412.23845153 -56.31403505 412.23866981 -57.08965307 412.2388947 C-58.61502588 412.23933816 -60.14039868 412.23978472 -61.66577148 412.24023438 C-62.42240302 412.2404558 -63.17903455 412.24067723 -63.95859431 412.24090537 C-76.2074981 412.24484993 -88.45634226 412.26229382 -100.70522303 412.2855939 C-113.29377978 412.30934589 -125.88230667 412.32177154 -138.47088617 412.32293582 C-145.53365892 412.32385055 -152.59635402 412.32955157 -159.6591053 412.34775543 C-166.3067045 412.36482927 -172.95418281 412.36638032 -179.60180664 412.35761642 C-182.03657361 412.35684724 -184.47134855 412.36117302 -186.9060955 412.37107468 C-210.69286786 412.4621073 -228.71873868 408.90301228 -246.3671875 391.69140625 C-261.47516793 375.7949622 -265.5429872 358.27112286 -265.2734375 337.046875 C-264.71192946 319.02302289 -255.49399615 303.23715009 -242.765625 290.8203125 C-237.86645959 286.59519334 -232.54418103 283.49589224 -226.8125 280.5625 C-226.14726318 280.22001221 -225.48202637 279.87752441 -224.79663086 279.5246582 C-220.49229286 277.42517682 -216.77127741 276.43937833 -212 276 C-212.01160156 275.3709375 -212.02320313 274.741875 -212.03515625 274.09375 C-212.04417969 273.2378125 -212.05320313 272.381875 -212.0625 271.5 C-212.07410156 270.6646875 -212.08570313 269.829375 -212.09765625 268.96875 C-212 266 -212 266 -211.26953125 262.12109375 C-210.66716533 257.54268132 -212.35125695 254.43588117 -214.625 250.5625 C-227.71865772 226.25714759 -228.81008977 198.18872655 -221 172 C-212.87283059 145.96906623 -194.9546449 124.06967482 -171 111 C-153.01904762 102 -153.01904762 102 -145 102 C-144.87044922 100.34677734 -144.87044922 100.34677734 -144.73828125 98.66015625 C-143.19496349 81.17829238 -138.56849509 66.30723739 -130 51 C-129.44441406 50.00226563 -128.88882813 49.00453125 -128.31640625 47.9765625 C-123.8090715 40.43191105 -118.07349716 34.28474923 -112 28 C-110.94425781 26.86691406 -110.94425781 26.86691406 -109.8671875 25.7109375 C-105.06706589 20.6776116 -99.84241626 16.75522802 -94 13 C-93.12988281 12.42378906 -92.25976562 11.84757812 -91.36328125 11.25390625 C-64.94537153 -5.28952675 -29.65477052 -9.61183238 0 0 Z M-85.92285156 48.86376953 C-87.29717428 50.2272893 -88.64911762 51.61325349 -90 53 C-90.75023437 53.7528125 -91.50046875 54.505625 -92.2734375 55.28125 C-106.05381296 69.85360106 -112.2997758 89.38843971 -111.9375 109.1875 C-111.81422459 116.56579368 -112.09891578 122.7673633 -117.1875 128.4375 C-121.69713898 130.94285499 -126.24623177 131.73131104 -131.2890625 132.50390625 C-144.66948779 134.7433669 -156.6301622 140.15009115 -167 149 C-167.86431641 149.65162109 -167.86431641 149.65162109 -168.74609375 150.31640625 C-182.32667083 160.93284846 -189.97538561 178.45720125 -192.46484375 195.109375 C-193.439815 204.09225615 -193.73681446 215.98538988 -189 224 C-188.44054687 223.50371094 -187.88109375 223.00742187 -187.3046875 222.49609375 C-170.10310372 207.92176151 -149.65529751 202.79509214 -127.4921875 204.2265625 C-124.65854351 204.46102477 -121.82892204 204.71455922 -119 205 C-118.47792969 204.12859375 -117.95585937 203.2571875 -117.41796875 202.359375 C-104.11176535 180.61966241 -85.1453722 165.11009919 -60.1875 158.5 C-43.28373523 154.61253947 -23.32665459 154.99520212 -7 161 C-6.3414502 161.24137695 -5.68290039 161.48275391 -5.00439453 161.73144531 C18.65256191 170.63429993 36.26167703 187.2680803 46.95703125 210.02026367 C51.4325719 219.97715131 53.93467949 230.13373077 55 241 C56.15242187 241.4228125 57.30484375 241.845625 58.4921875 242.28125 C76.66942664 249.12068591 92.97937678 258.46906517 104 275 C106.897244 275.46822636 106.897244 275.46822636 110.35473633 275.40405273 C111.00714294 275.41091599 111.65954956 275.41777924 112.33172607 275.42485046 C114.4987136 275.44321355 116.66498219 275.43926197 118.83203125 275.43359375 C120.34502904 275.43815681 121.85802475 275.44346276 123.37101746 275.44947815 C126.5530128 275.45843209 129.73475762 275.45596718 132.91674805 275.44604492 C136.96032225 275.43465542 141.00301006 275.45459822 145.04646778 275.48396206 C148.17900455 275.50249052 151.31133647 275.50199716 154.44391441 275.49632454 C155.9319958 275.49617279 157.4200924 275.50209419 158.90812111 275.51461601 C174.45591184 275.62684052 187.74518461 272.43606394 199.47265625 261.74609375 C210.04996009 250.74499142 214.42062447 238.27758645 214.36572266 223.27783203 C214.13352863 212.23263918 210.65978592 203.73987654 204 195 C203.2575 193.96875 202.515 192.9375 201.75 191.875 C191.43025821 181.08617904 178.8318137 176.58994487 164.25 175.5625 C158.4535802 175.08014631 154.72166093 173.86125506 150.6875 169.5 C146.56073311 163.38627127 147.84803079 156.23347322 148.625 149.25 C149.960769 133.77079453 144.67953895 119.93809804 135 108 C126.06539497 97.57629414 112.79073065 89.65243962 99 88 C87.59482416 87.2776722 78.35962896 88.63995615 67.9375 93.1875 C62.91057144 95.25741176 58.38723787 95.91340711 53 95 C45.66789191 91.46972573 43.33696853 86.07273195 40.6875 78.8125 C36.58445932 67.83780152 30.17070092 59.3094225 22 51 C20.96939453 49.95005859 20.96939453 49.95005859 19.91796875 48.87890625 C-8.89244434 21.4582348 -57.23081289 21.31299867 -85.92285156 48.86376953 Z M-80.3828125 206.23046875 C-86.75027308 213.07004143 -91.14497679 220.65194428 -94.5625 229.3125 C-96.87196002 235.04202025 -99.09749855 238.54874927 -104.75 241.375 C-112.02374282 242.7737967 -117.98575774 240.89521878 -124.640625 237.9375 C-133.94722909 234.23951162 -143.82074056 235.64862815 -153 239 C-165.09569576 244.34324424 -172.60605627 252.83509888 -177.8125 264.875 C-180.21410677 271.9377134 -180.29001891 279.41968186 -179.375 286.75 C-178.84050892 291.69582409 -179.11622793 295.81985333 -182 300 C-186.78551311 304.95458653 -190.53202423 305.82435676 -197.25 306.5 C-204.63482338 307.46008339 -210.74089307 308.72131362 -217 313 C-217.639375 313.43054688 -218.27875 313.86109375 -218.9375 314.3046875 C-225.58308749 319.37481244 -229.84523219 327.01063261 -232 335 C-233.10399385 347.2723037 -231.60017227 357.37578639 -223.6875 367.1875 C-215.61940519 375.85323146 -205.45243601 379.60673157 -193.76957762 380.09279668 C-191.31045848 380.13095382 -188.85316521 380.13812733 -186.39375305 380.13371277 C-185.45687297 380.13597833 -184.51999288 380.13824388 -183.55472249 380.14057809 C-180.43140709 380.14688228 -177.30813549 380.14609103 -174.18481445 380.14526367 C-171.93874557 380.14825743 -169.6926772 380.15166045 -167.4466095 380.15544128 C-161.35549277 380.16426417 -155.2643901 380.1666187 -149.1732676 380.16725707 C-145.36395068 380.16796862 -141.55463731 380.17010496 -137.74532127 380.17275429 C-125.13080588 380.18152559 -112.51630071 380.1861747 -99.90178309 380.18542381 C-98.88317756 380.18536388 -98.88317756 380.18536388 -97.84399414 380.18530273 C-96.82413312 380.18524141 -96.82413312 380.18524141 -95.78366884 380.18517885 C-84.77398399 380.18477272 -73.76433339 380.19433556 -62.75465844 380.2084411 C-51.42822457 380.22283701 -40.10181257 380.22952676 -28.77536744 380.22884732 C-22.42523965 380.2285929 -16.07515063 380.23141315 -9.7250309 380.24202538 C-3.74879126 380.25174029 2.22737281 380.2517623 8.20361519 380.24450874 C10.38962795 380.24346707 12.5756455 380.24580086 14.76165009 380.2518692 C34.50403353 380.30309811 53.53559576 380.02888992 69 366 C69.86625 365.21625 70.7325 364.4325 71.625 363.625 C84.12926683 349.80449456 87.88972392 336.64216952 87.17480469 318.3515625 C86.15465358 304.62796544 78.29581454 293.44253987 68.59375 284.22265625 C59.42546784 276.36610121 48.90838957 272.81685049 37.0625 271.0625 C31.86880434 270.17042418 29.44777788 269.05113901 26 265 C23.28761398 260.04109578 22.87758217 255.39611333 23 249.8125 C23.29599481 234.83864503 18.47945826 220.88393249 8.5625 209.5625 C7.0632716 208.02036439 5.54351854 206.49780458 4 205 C3.36320313 204.35417969 2.72640625 203.70835937 2.0703125 203.04296875 C-21.3691745 180.72196349 -57.96629518 185.24713861 -80.3828125 206.23046875 Z " fill="#000000" transform="translate(265,52)"/>
</svg>
