<?xml version="1.0" encoding="UTF-8"?>
<svg version="1.1" xmlns="http://www.w3.org/2000/svg" width="512" height="512">
<path d="M0 0 C10.42243947 8.79743547 20.06476691 18.07799066 27.1796875 29.83984375 C27.1796875 30.49984375 27.1796875 31.15984375 27.1796875 31.83984375 C28.2934375 31.30875 29.4071875 30.77765625 30.5546875 30.23046875 C53.77816712 19.36580307 78.85248105 15.03100708 103.91015625 23.2265625 C115.28636529 27.36265856 125.09862606 32.7787566 134.1796875 40.83984375 C134.85 41.36835937 135.5203125 41.896875 136.2109375 42.44140625 C150.81093839 54.20251808 160.55974002 72.62102915 164.1796875 90.83984375 C164.2734375 93.734375 164.2734375 93.734375 164.1796875 95.83984375 C165.943125 95.93265625 165.943125 95.93265625 167.7421875 96.02734375 C188.61460934 98.39398056 207.63407423 111.35596016 221.1796875 126.83984375 C238.68286212 148.92032884 243.97425388 173.48012422 240.8984375 201.39208984 C237.38487699 223.97569963 222.64728135 245.03154665 204.5546875 258.46484375 C193.58351687 265.73883305 182.00357833 270.87274744 169.1796875 273.83984375 C168.42013647 274.01633569 167.66058545 274.19282764 166.87801772 274.37466782 C163.87599483 274.89219854 161.06486123 274.96900487 158.01812267 274.97406483 C156.770979 274.97852267 155.52383532 274.98298051 154.23889941 274.98757344 C152.85760509 274.98748416 151.47631077 274.98729432 150.09501648 274.98701477 C148.62542477 274.99031534 147.15583396 274.99404132 145.68624431 274.99815625 C141.64666607 275.00816284 137.6071027 275.0118909 133.56751382 275.01454556 C129.21073869 275.01845272 124.85397528 275.02803094 120.49720764 275.03675842 C109.9733542 275.05651364 99.4494998 275.06658893 88.92563245 275.07548621 C83.96614073 275.07987162 79.00665007 275.08523786 74.04715919 275.09047508 C57.55337973 275.10748823 41.05960091 275.12198066 24.56581402 275.12922382 C20.28630764 275.13113364 16.00680128 275.13305398 11.72729492 275.13500977 C10.1318715 275.13573538 10.1318715 275.13573538 8.5042173 275.13647565 C-8.71151559 275.14476941 -25.92717886 275.17009489 -43.14288137 275.20259044 C-60.83007241 275.23570282 -78.51722812 275.25367646 -96.20445031 275.25686806 C-106.13011663 275.25902955 -116.05568148 275.2677249 -125.98131752 275.29332924 C-134.43779268 275.31509357 -142.89414172 275.32305864 -151.35064171 275.31336246 C-155.66049934 275.308834 -159.97009709 275.31061853 -164.27991867 275.3301239 C-168.23629105 275.3478738 -172.19221625 275.34666337 -176.14859416 275.33122661 C-177.56931768 275.32886828 -178.99007315 275.33308036 -180.41074816 275.34505526 C-205.45130586 275.54281038 -227.65500348 265.68116986 -245.6328125 248.52734375 C-263.92936516 229.37104118 -271.51119288 207.30749971 -271.28881836 181.1328125 C-270.64076062 156.00915388 -259.88283104 134.93439954 -241.90625 117.51171875 C-229.61459997 106.50162437 -211.64545286 95.83984375 -194.8203125 95.83984375 C-194.86671875 94.83308594 -194.913125 93.82632813 -194.9609375 92.7890625 C-195.93534089 62.15071945 -183.24043541 34.17062143 -162.8203125 11.83984375 C-162.10359375 11.040625 -161.386875 10.24140625 -160.6484375 9.41796875 C-149.95894463 -1.91450114 -136.94672351 -9.8660636 -122.8203125 -16.16015625 C-121.76585937 -16.64226563 -120.71140625 -17.124375 -119.625 -17.62109375 C-80.53549019 -34.11666695 -32.71270974 -26.42180402 0 0 Z M-138.8203125 31.83984375 C-154.75021395 48.49280455 -164.26085751 69.520691 -164.1328125 92.71484375 C-164.13152344 93.698479 -164.13023437 94.68211426 -164.12890625 95.69555664 C-164.00226829 105.57252633 -162.60476468 115.14219589 -160.8203125 124.83984375 C-162.10164063 124.81664062 -163.38296875 124.7934375 -164.703125 124.76953125 C-186.50784785 124.48827549 -206.45801367 126.99787805 -223.0703125 142.58984375 C-235.85436572 156.18433798 -240.36326425 171.60050508 -240.09765625 189.7421875 C-239.85670585 196.24305337 -238.40517122 201.87603179 -235.8203125 207.83984375 C-235.41941406 208.76796875 -235.01851562 209.69609375 -234.60546875 210.65234375 C-227.14237201 225.88138754 -214.19995902 236.16872336 -198.37082672 241.76051354 C-188.05312535 244.89701886 -177.33024149 245.13227535 -166.62695312 245.09381104 C-165.25541265 245.09612219 -163.88387343 245.09930306 -162.51233673 245.10326552 C-158.78563921 245.11153233 -155.05904552 245.10752569 -151.33234787 245.10129309 C-147.29683517 245.09673598 -143.26133934 245.10376839 -139.22583008 245.10925293 C-131.33690563 245.11811403 -123.44801938 245.11623962 -115.55909348 245.11042765 C-109.14364053 245.10589819 -102.72819823 245.10530379 -96.31274414 245.10747528 C-95.39726319 245.10778175 -94.48178224 245.10808821 -93.53855944 245.10840397 C-91.67837715 245.10904346 -89.81819486 245.10969189 -87.95801258 245.11034915 C-70.54329339 245.11604282 -53.12859531 245.10950968 -35.71387959 245.09874842 C-20.79361749 245.08981378 -5.87338653 245.0913661 9.046875 245.10058594 C26.40221926 245.1113056 43.75754505 245.11549359 61.11289215 245.10936141 C62.96596781 245.10872436 64.81904347 245.10809562 66.67211914 245.10747528 C67.58370395 245.10716673 68.49528876 245.10685818 69.43449736 245.10654028 C75.8371141 245.10481842 82.23971906 245.10771742 88.64233398 245.11243439 C96.45231212 245.11806209 104.26225009 245.11648719 112.07222366 245.1058729 C116.05170144 245.10064153 120.03111242 245.09851585 124.0105896 245.1051712 C127.66231127 245.11118574 131.313905 245.10776613 134.96561527 245.0972161 C136.89319187 245.09396798 138.82077754 245.10040348 140.74834442 245.10733056 C160.49369296 245.0197408 178.65089703 240.9609158 193.4296875 227.08984375 C206.21374072 213.49534952 210.72263925 198.07918242 210.45703125 179.9375 C210.21608085 173.43663413 208.76454622 167.80365571 206.1796875 161.83984375 C205.77878906 160.91171875 205.37789063 159.98359375 204.96484375 159.02734375 C197.44241956 143.67723758 184.45303391 133.53925095 168.5546875 127.83984375 C157.58940033 124.59086977 146.49962655 124.5752218 135.1796875 124.83984375 C135.21449219 123.47666016 135.21449219 123.47666016 135.25 122.0859375 C135.56287274 100.29658578 131.58501182 83.01882413 116.4921875 66.65234375 C105.36834994 56.07166232 90.59973886 49.67580065 75.1796875 49.83984375 C55.25902036 51.06304261 41.54750916 58.8312217 27.98046875 73.03125 C24.53384737 76.48748539 20.88385651 79.66442853 17.1796875 82.83984375 C16.74269531 81.76839111 16.74269531 81.76839111 16.296875 80.67529297 C3.82548207 50.24685903 -9.51258312 25.17392398 -40.89160156 11.62841797 C-74.88282429 -2.26925917 -112.92747845 6.49051294 -138.8203125 31.83984375 Z " fill="#000000" transform="translate(270.8203125,56.16015625)"/>
<path d="M0 0 C1.14210938 0.20898926 2.28421875 0.41797852 3.4609375 0.63330078 C21.76796095 4.03528802 39.34485826 9.1810332 57 15 C58.1755305 19.17263375 57.76085146 21.67262734 56.34765625 25.73828125 C55.98349609 26.80498047 55.61933594 27.87167969 55.24414062 28.97070312 C54.85419922 30.07349609 54.46425781 31.17628906 54.0625 32.3125 C53.67642578 33.43462891 53.29035156 34.55675781 52.89257812 35.71289062 C51.93909284 38.47917509 50.974606 41.2411007 50 44 C46.36554915 44.94120198 44.14505926 45.03671631 40.61328125 43.77734375 C39.35040283 43.344823 39.35040283 43.344823 38.06201172 42.90356445 C36.70100342 42.42536255 36.70100342 42.42536255 35.3125 41.9375 C-21.87583701 22.91136181 -77.48888087 24.51147736 -135 41 C-148.90403923 44.96428594 -162.80891781 48.54010107 -177 51.3125 C-178.22678467 51.55492432 -179.45356934 51.79734863 -180.7175293 52.04711914 C-197.41496028 55.20247774 -213.83829804 56.41249656 -230.8125 56.375 C-231.74787598 56.37445618 -232.68325195 56.37391235 -233.64697266 56.37335205 C-250.05552395 56.32977163 -265.85687914 55.12585629 -282 52 C-283.12180664 51.78569336 -284.24361328 51.57138672 -285.39941406 51.35058594 C-326.31074152 43.32715403 -326.31074152 43.32715403 -340 36 C-339.37869771 29.69071903 -337.50010374 24.03792431 -335.4375 18.0625 C-335.10814453 17.09248047 -334.77878906 16.12246094 -334.43945312 15.12304688 C-333.6317552 12.74677616 -332.81849052 10.37257031 -332 8 C-327.98161882 6.90045198 -325.55966746 7.15472611 -321.6328125 8.4765625 C-320.59455322 8.81526367 -319.55629395 9.15396484 -318.48657227 9.50292969 C-317.37725342 9.87321289 -316.26793457 10.24349609 -315.125 10.625 C-254.88480874 29.8717097 -198.17334032 26.09023908 -138.1328125 8.5859375 C-124.26613021 4.56308277 -110.1838809 1.67226724 -96 -1 C-94.59282715 -1.27553711 -94.59282715 -1.27553711 -93.15722656 -1.55664062 C-63.14623963 -7.24388692 -29.8557263 -5.70282828 0 0 Z " fill="#000000" transform="translate(397,425)"/>
<path d="M0 0 C1.14210938 0.20898926 2.28421875 0.41797852 3.4609375 0.63330078 C21.76796095 4.03528802 39.34485826 9.1810332 57 15 C58.1755305 19.17263375 57.76085146 21.67262734 56.34765625 25.73828125 C55.98349609 26.80498047 55.61933594 27.87167969 55.24414062 28.97070312 C54.85419922 30.07349609 54.46425781 31.17628906 54.0625 32.3125 C53.67642578 33.43462891 53.29035156 34.55675781 52.89257812 35.71289062 C51.93909284 38.47917509 50.974606 41.2411007 50 44 C46.36554915 44.94120198 44.14505926 45.03671631 40.61328125 43.77734375 C39.35040283 43.344823 39.35040283 43.344823 38.06201172 42.90356445 C36.70100342 42.42536255 36.70100342 42.42536255 35.3125 41.9375 C-21.87583701 22.91136181 -77.48888087 24.51147736 -135 41 C-148.90403923 44.96428594 -162.80891781 48.54010107 -177 51.3125 C-178.22678467 51.55492432 -179.45356934 51.79734863 -180.7175293 52.04711914 C-197.41496028 55.20247774 -213.83829804 56.41249656 -230.8125 56.375 C-231.74787598 56.37445618 -232.68325195 56.37391235 -233.64697266 56.37335205 C-250.05552395 56.32977163 -265.85687914 55.12585629 -282 52 C-283.12180664 51.78569336 -284.24361328 51.57138672 -285.39941406 51.35058594 C-326.31074152 43.32715403 -326.31074152 43.32715403 -340 36 C-339.37869771 29.69071903 -337.50010374 24.03792431 -335.4375 18.0625 C-335.10814453 17.09248047 -334.77878906 16.12246094 -334.43945312 15.12304688 C-333.6317552 12.74677616 -332.81849052 10.37257031 -332 8 C-327.98161882 6.90045198 -325.55966746 7.15472611 -321.6328125 8.4765625 C-320.59455322 8.81526367 -319.55629395 9.15396484 -318.48657227 9.50292969 C-317.37725342 9.87321289 -316.26793457 10.24349609 -315.125 10.625 C-254.88480874 29.8717097 -198.17334032 26.09023908 -138.1328125 8.5859375 C-124.26613021 4.56308277 -110.1838809 1.67226724 -96 -1 C-94.59282715 -1.27553711 -94.59282715 -1.27553711 -93.15722656 -1.55664062 C-63.14623963 -7.24388692 -29.8557263 -5.70282828 0 0 Z " fill="#000000" transform="translate(397,365)"/>
</svg>
