<?xml version="1.0" encoding="UTF-8"?>
<svg version="1.1" xmlns="http://www.w3.org/2000/svg" width="512" height="512">
<path d="M0 0 C24.56369025 20.13577474 37.52855915 45.75996769 41.19921875 77.10546875 C42.24078125 77.37359375 43.28234375 77.64171875 44.35546875 77.91796875 C69.11288209 84.56538812 90.11113133 97.8431708 103.609375 120.234375 C115.59303556 141.87562932 120.57101251 167.75074245 114.16796875 192.05859375 C105.52433637 219.24421172 89.1470047 239.55400246 63.859375 252.86328125 C47.0682708 260.66125029 29.72329428 261.69231703 11.47973633 261.55957031 C9.27006552 261.55843901 7.06039321 261.5590812 4.85072327 261.56134033 C-1.08611417 261.56247736 -7.02262137 261.53913354 -12.95938277 261.5110445 C-19.1866342 261.48586045 -25.41389508 261.48367554 -31.64118958 261.47894287 C-43.40581333 261.46656271 -55.17028654 261.43380883 -66.93484432 261.39354491 C-76.33700689 261.36184339 -85.73915348 261.3400321 -95.14135742 261.32519531 C-96.13750032 261.32361897 -96.13750032 261.32361897 -97.15376731 261.32201079 C-100.48605702 261.31678982 -103.81834695 261.31174425 -107.15063703 261.30676317 C-134.70076823 261.26507134 -162.25076626 261.1948167 -189.80078125 261.10546875 C-189.80078125 258.46546875 -189.80078125 255.82546875 -189.80078125 253.10546875 C-196.07078125 253.10546875 -202.34078125 253.10546875 -208.80078125 253.10546875 C-208.80078125 255.74546875 -208.80078125 258.38546875 -208.80078125 261.10546875 C-230.03197735 262.48345504 -252.25778031 253.91899629 -268.3359375 240.31640625 C-269.55603516 239.22199219 -269.55603516 239.22199219 -270.80078125 238.10546875 C-271.70699219 237.29335938 -272.61320312 236.48125 -273.546875 235.64453125 C-290.33612536 219.76343729 -301.17280191 197.05787713 -302.00390625 173.828125 C-302.42101922 149.00857512 -295.69997244 125.94537977 -278.80078125 107.10546875 C-277.98867188 106.19925781 -277.1765625 105.29304688 -276.33984375 104.359375 C-262.72848775 89.969657 -244.4147613 80.23060973 -224.80078125 77.10546875 C-223.81078125 77.10546875 -222.82078125 77.10546875 -221.80078125 77.10546875 C-221.75953125 76.03296875 -221.71828125 74.96046875 -221.67578125 73.85546875 C-220.29547314 63.29797702 -213.58241163 54.02513392 -205.80078125 47.10546875 C-195.16191562 39.20827157 -182.98479592 35.92278508 -169.80078125 37.10546875 C-166.42968853 37.63560027 -163.11642445 38.29993287 -159.80078125 39.10546875 C-159.53136719 38.21988281 -159.26195312 37.33429687 -158.984375 36.421875 C-151.33809375 14.99714636 -129.71179579 -2.08911628 -109.96533203 -11.796875 C-105.66863975 -13.8014592 -101.30556713 -15.43894897 -96.80078125 -16.89453125 C-95.83060059 -17.20994873 -95.83060059 -17.20994873 -94.84082031 -17.53173828 C-63.25248358 -27.26723591 -26.01034024 -20.40251358 0 0 Z " fill="#BCDAFE" transform="translate(364.80078125,20.89453125)"/>
<path d="M0 0 C24.56369025 20.13577474 37.52855915 45.75996769 41.19921875 77.10546875 C42.24078125 77.37359375 43.28234375 77.64171875 44.35546875 77.91796875 C69.11288209 84.56538812 90.11113133 97.8431708 103.609375 120.234375 C115.59303556 141.87562932 120.57101251 167.75074245 114.16796875 192.05859375 C105.52433637 219.24421172 89.1470047 239.55400246 63.859375 252.86328125 C47.0682708 260.66125029 29.72329428 261.69231703 11.47973633 261.55957031 C9.27006552 261.55843901 7.06039321 261.5590812 4.85072327 261.56134033 C-1.08611417 261.56247736 -7.02262137 261.53913354 -12.95938277 261.5110445 C-19.1866342 261.48586045 -25.41389508 261.48367554 -31.64118958 261.47894287 C-43.40581333 261.46656271 -55.17028654 261.43380883 -66.93484432 261.39354491 C-76.33700689 261.36184339 -85.73915348 261.3400321 -95.14135742 261.32519531 C-96.13750032 261.32361897 -96.13750032 261.32361897 -97.15376731 261.32201079 C-100.48605702 261.31678982 -103.81834695 261.31174425 -107.15063703 261.30676317 C-134.70076823 261.26507134 -162.25076626 261.1948167 -189.80078125 261.10546875 C-189.89116224 255.95375252 -189.64759258 251.18633671 -188.80078125 246.10546875 C-187.15171233 246.10050353 -187.15171233 246.10050353 -185.46932888 246.095438 C-158.67592591 246.01431838 -131.88257943 245.9219648 -105.08925533 245.81794167 C-92.13202524 245.76789422 -79.17480122 245.72145055 -66.2175293 245.68359375 C-54.91939463 245.65057513 -43.62130825 245.61068982 -32.32322699 245.56267869 C-26.34517076 245.5375116 -20.36714616 245.51570175 -14.38905144 245.50212479 C-8.75268056 245.48921517 -3.11641869 245.46706633 2.51989174 245.43808556 C4.57926498 245.42907891 6.63865575 245.42333589 8.69804764 245.42125511 C36.00016718 245.38875322 58.45889691 241.25517944 79.19921875 222.10546875 C94.65349287 206.07269239 100.8236289 184.99072451 100.47265625 163.1328125 C99.69794592 143.00184946 89.34505073 124.51984943 74.94921875 110.79296875 C64.5029027 102.1212458 53.12023325 97.6683047 40.19921875 94.10546875 C39.20921875 93.77546875 38.21921875 93.44546875 37.19921875 93.10546875 C35.14028254 92.88221061 33.07688222 92.69841116 31.01171875 92.54296875 C29.38169922 92.41728516 29.38169922 92.41728516 27.71875 92.2890625 C26.88730469 92.22847656 26.05585938 92.16789062 25.19921875 92.10546875 C25.18987305 91.55310547 25.18052734 91.00074219 25.17089844 90.43164062 C24.57939421 62.43377377 16.8257204 38.07904517 -3.80078125 18.10546875 C-23.9081072 0.45792947 -48.48264303 -6.33598405 -74.80078125 -4.89453125 C-93.34878486 -3.03306793 -109.75586082 5.21200773 -123.80078125 17.10546875 C-124.41566406 17.5746875 -125.03054687 18.04390625 -125.6640625 18.52734375 C-138.58923583 28.62977807 -146.94950368 45.75372854 -151.80078125 61.10546875 C-154.30509033 60.16854193 -156.6026592 59.22836401 -158.87890625 57.81640625 C-166.59801687 53.06832022 -175.00439931 52.67189114 -183.80078125 54.10546875 C-191.37585439 56.47215827 -197.57143231 60.31031478 -201.80078125 67.10546875 C-202.1875 67.72679688 -202.57421875 68.348125 -202.97265625 68.98828125 C-206.72113733 76.13212564 -207.06388534 84.20322975 -207.80078125 92.10546875 C-208.94933594 92.2034375 -210.09789062 92.30140625 -211.28125 92.40234375 C-234.93760858 94.59639365 -253.6617406 102.65412982 -269.17578125 120.8984375 C-282.83646854 138.82808956 -286.64661454 158.01375873 -284.80078125 180.10546875 C-282.13588674 199.23348933 -271.39318357 217.62941244 -256.14599609 229.38085938 C-243.44920763 238.59773354 -230.10203488 242.60039625 -214.80078125 245.10546875 C-213.13244737 245.43035482 -211.46494069 245.75983564 -209.80078125 246.10546875 C-208.95396992 251.18633671 -208.71040026 255.95375252 -208.80078125 261.10546875 C-230.03197735 262.48345504 -252.25778031 253.91899629 -268.3359375 240.31640625 C-269.55603516 239.22199219 -269.55603516 239.22199219 -270.80078125 238.10546875 C-271.70699219 237.29335938 -272.61320312 236.48125 -273.546875 235.64453125 C-290.33612536 219.76343729 -301.17280191 197.05787713 -302.00390625 173.828125 C-302.42101922 149.00857512 -295.69997244 125.94537977 -278.80078125 107.10546875 C-277.98867188 106.19925781 -277.1765625 105.29304688 -276.33984375 104.359375 C-262.72848775 89.969657 -244.4147613 80.23060973 -224.80078125 77.10546875 C-223.81078125 77.10546875 -222.82078125 77.10546875 -221.80078125 77.10546875 C-221.75953125 76.03296875 -221.71828125 74.96046875 -221.67578125 73.85546875 C-220.29547314 63.29797702 -213.58241163 54.02513392 -205.80078125 47.10546875 C-195.16191562 39.20827157 -182.98479592 35.92278508 -169.80078125 37.10546875 C-166.42968853 37.63560027 -163.11642445 38.29993287 -159.80078125 39.10546875 C-159.53136719 38.21988281 -159.26195312 37.33429687 -158.984375 36.421875 C-151.33809375 14.99714636 -129.71179579 -2.08911628 -109.96533203 -11.796875 C-105.66863975 -13.8014592 -101.30556713 -15.43894897 -96.80078125 -16.89453125 C-95.83060059 -17.20994873 -95.83060059 -17.20994873 -94.84082031 -17.53173828 C-63.25248358 -27.26723591 -26.01034024 -20.40251358 0 0 Z " fill="#000101" transform="translate(364.80078125,20.89453125)"/>
<path d="M0 0 C2.83965534 1.98354838 5.59844634 3.99633428 8.30859375 6.15625 C15.17378633 11.5531304 22.23529848 16.62546127 29.37109375 21.65625 C30.92587401 22.7550771 32.48055704 23.85404178 34.03515625 24.953125 C38.14489527 27.85735185 42.25734753 30.75770242 46.37109375 33.65625 C45.73360066 40.07326889 43.83446679 45.88477742 41.80859375 51.98828125 C41.2815686 53.59771858 41.2815686 53.59771858 40.74389648 55.2396698 C40.00352319 57.4971774 39.26038539 59.75378001 38.51464844 62.00952148 C37.36983362 65.47256187 36.23300618 68.93814321 35.09765625 72.40429688 C34.3767616 74.59910932 33.65542297 76.79377599 32.93359375 78.98828125 C32.59191162 80.02781448 32.25022949 81.06734772 31.89819336 82.13838196 C31.42265015 83.57578987 31.42265015 83.57578987 30.9375 85.04223633 C30.65849854 85.88716141 30.37949707 86.73208649 30.09204102 87.60261536 C29.37109375 89.65625 29.37109375 89.65625 28.37109375 91.65625 C8.57109375 91.65625 -11.22890625 91.65625 -31.62890625 91.65625 C-37.98437856 72.66044944 -37.98437856 72.66044944 -40.55078125 64.91796875 C-42.2925717 59.66403426 -44.04686841 54.41518259 -45.83203125 49.17578125 C-46.39003707 47.5028422 -46.94741435 45.82969325 -47.50390625 44.15625 C-47.75994629 43.4243042 -48.01598633 42.6923584 -48.27978516 41.93823242 C-49.82619883 37.2060218 -49.82619883 37.2060218 -48.90478516 34.63842773 C-47.46239046 32.39755468 -46.06965246 31.21417412 -43.91015625 29.66015625 C-43.15130127 29.10779297 -42.39244629 28.55542969 -41.6105957 27.98632812 C-40.79163818 27.40302734 -39.97268066 26.81972656 -39.12890625 26.21875 C-38.28610107 25.60837891 -37.4432959 24.99800781 -36.57495117 24.36914062 C-33.93171127 22.45716674 -31.28060772 20.55646504 -28.62890625 18.65625 C-26.16801784 16.88055199 -23.70894872 15.10235721 -21.25 13.32397461 C-19.7578789 12.2460686 -18.26447556 11.16993435 -16.76953125 10.09594727 C-16.07988281 9.60022217 -15.39023437 9.10449707 -14.6796875 8.59375 C-14.01018066 8.11808594 -13.34067383 7.64242188 -12.65087891 7.15234375 C-11.23631903 6.10568559 -9.85765737 5.00954512 -8.50927734 3.87890625 C-3.28809407 -0.42994395 -3.28809407 -0.42994395 0 0 Z " fill="#020202" transform="translate(414.62890625,303.34375)"/>
<path d="M0 0 C5.63570116 3.05298248 10.69104482 6.59295607 15.8125 10.4375 C17.48768149 11.68439991 19.16347902 12.93047256 20.83984375 14.17578125 C21.69046387 14.80822754 22.54108398 15.44067383 23.41748047 16.09228516 C28.28510409 19.68801318 33.2044963 23.21219701 38.12426758 26.73608398 C41.83104228 29.39940695 45.4678894 32.10505445 49 35 C47.03517239 42.46067188 44.83858972 49.80945513 42.42578125 57.13671875 C42.13392944 58.02991821 41.84207764 58.92311768 41.54138184 59.84338379 C40.46802397 63.12571744 39.3900016 66.40652429 38.3125 69.6875 C35.899375 77.050625 33.48625 84.41375 31 92 C11.2 92 -8.6 92 -29 92 C-31.68681504 85.28296239 -34.21007009 78.65181429 -36.453125 71.79296875 C-36.75820984 70.86454666 -37.06329468 69.93612457 -37.37762451 68.97956848 C-38.01458797 67.03651907 -38.64976313 65.09288257 -39.28320312 63.14868164 C-40.25398409 60.17529721 -41.23617364 57.20583241 -42.21875 54.23632812 C-42.83924178 52.33877046 -43.45905762 50.4409916 -44.078125 48.54296875 C-44.37180969 47.65957321 -44.66549438 46.77617767 -44.96807861 45.86601257 C-47.60541617 37.69657391 -47.60541617 37.69657391 -47 34 C-45.05440818 32.22331808 -43.3162993 30.90980966 -41.125 29.5 C-39.83382581 28.62489126 -38.54350235 27.74852637 -37.25390625 26.87109375 C-36.56312988 26.40815918 -35.87235352 25.94522461 -35.16064453 25.46826172 C-31.40273481 22.9145816 -27.73787144 20.23294876 -24.0625 17.5625 C-22.54558134 16.46613418 -21.02865426 15.36978001 -19.51171875 14.2734375 C-12.98611514 9.54522957 -6.49016544 4.77668518 0 0 Z " fill="#020202" transform="translate(269,303)"/>
<path d="M0 0 C7.18751246 4.3246897 13.89854438 9.0852644 20.57299805 14.15087891 C25.93401457 18.21611071 31.35474491 22.19065945 36.8125 26.125 C37.58343994 26.6813916 38.35437988 27.2377832 39.14868164 27.81103516 C42.07502325 29.91768698 44.99934464 31.99956309 48 34 C47.42069297 40.85836295 45.60428491 46.94964058 43.4375 53.46484375 C43.0861499 54.5387587 42.7347998 55.61267365 42.37280273 56.71913147 C41.63315698 58.97509824 40.89001058 61.22991998 40.14355469 63.48364258 C38.99649482 66.94808663 37.86066148 70.4160597 36.7265625 73.88476562 C36.00585811 76.07833859 35.28452626 78.27170553 34.5625 80.46484375 C34.22081787 81.50640121 33.87913574 82.54795868 33.52709961 83.62107849 C33.2100708 84.57619827 32.89304199 85.53131805 32.56640625 86.51538086 C32.28740479 87.35951035 32.00840332 88.20363983 31.72094727 89.073349 C31 91 31 91 30 92 C28.1281906 92.09386381 26.2528194 92.11743804 24.37866211 92.11352539 C23.17749252 92.11344986 21.97632294 92.11337433 20.73875427 92.11329651 C19.4314888 92.10813522 18.12422333 92.10297394 16.77734375 92.09765625 C15.43355868 92.09579198 14.08977293 92.09436812 12.74598694 92.09336853 C9.20317723 92.08954402 5.6604083 92.07971432 2.11761475 92.06866455 C-1.49515227 92.05844899 -5.10792584 92.0538706 -8.72070312 92.04882812 C-15.8138188 92.03809198 -22.90690674 92.02101636 -30 92 C-32.4067909 84.68727737 -34.80908158 77.37308763 -37.20825195 70.05786133 C-38.02492429 67.56956534 -38.84262557 65.08160681 -39.66137695 62.59399414 C-40.83815971 59.01797327 -42.0112348 55.44075449 -43.18359375 51.86328125 C-43.55028671 50.75165115 -43.91697968 49.64002106 -44.29478455 48.4947052 C-44.80520042 46.93365303 -44.80520042 46.93365303 -45.32592773 45.34106445 C-45.6257103 44.4283931 -45.92549286 43.51572174 -46.23435974 42.57539368 C-46.98095691 40.06405547 -47.52982075 37.57605098 -48 35 C-40.40042636 29.06677806 -32.71195671 23.30228608 -24.84375 17.73046875 C-19.51737208 13.95761773 -14.23777625 10.11974347 -8.95239258 6.28979492 C-8.22173584 5.7610376 -7.4910791 5.23228027 -6.73828125 4.6875 C-6.08899658 4.21699219 -5.43971191 3.74648438 -4.77075195 3.26171875 C-3.20188241 2.14384783 -1.60285523 1.06857015 0 0 Z " fill="#020202" transform="translate(126,303)"/>
<path d="M0 0 C2.31917103 0.88567202 3.98718954 1.99207497 5.96875 3.48779297 C6.72115967 4.04982422 7.47356934 4.61185547 8.2487793 5.19091797 C9.45207886 6.10357422 9.45207886 6.10357422 10.6796875 7.03466797 C12.38609345 8.3115457 14.09314101 9.58756638 15.80078125 10.86279297 C16.6707373 11.51441406 17.54069336 12.16603516 18.43701172 12.83740234 C23.22165154 16.39665316 28.07046779 19.86660261 32.91455078 23.34423828 C37.67234477 26.7666477 42.37872396 30.25126527 47.0546875 33.78466797 C46.40966309 40.28699476 44.47718175 46.21045818 42.45703125 52.40576172 C41.986745 53.86955261 41.986745 53.86955261 41.50695801 55.36291504 C40.34154453 58.98465938 39.16628976 62.60323103 37.9921875 66.22216797 C35.3728125 74.32779297 32.7534375 82.43341797 30.0546875 90.78466797 C9.9246875 90.78466797 -10.2053125 90.78466797 -30.9453125 90.78466797 C-43.30785206 53.83441085 -43.30785206 53.83441085 -46.6953125 43.15966797 C-46.93459473 42.41096436 -47.17387695 41.66226074 -47.42041016 40.89086914 C-48.9453125 36.033838 -48.9453125 36.033838 -48.9453125 33.78466797 C-47.01996804 32.25863129 -45.09355894 30.85887519 -43.0703125 29.47216797 C-41.77947383 28.56919949 -40.48913337 27.66551849 -39.19921875 26.76123047 C-38.50844238 26.27944336 -37.81766602 25.79765625 -37.10595703 25.30126953 C-33.38039266 22.68621802 -29.69592717 20.01463493 -26.0078125 17.34716797 C-25.25371094 16.80519775 -24.49960937 16.26322754 -23.72265625 15.70483398 C-19.97902204 13.0088885 -16.26708924 10.28262073 -12.60546875 7.47607422 C-11.92411865 6.95907959 -11.24276855 6.44208496 -10.54077148 5.90942383 C-9.25737092 4.93260191 -7.98165449 3.94557399 -6.71508789 2.94702148 C-2.46386223 -0.27273174 -2.46386223 -0.27273174 0 0 Z " fill="#010101" transform="translate(366.9453125,421.21533203125)"/>
<path d="M0 0 C2.19667814 0.8535134 3.82502641 1.87200713 5.72045898 3.27124023 C6.42750977 3.78799316 7.13456055 4.30474609 7.86303711 4.8371582 C8.6177832 5.39806152 9.3725293 5.95896484 10.15014648 6.53686523 C11.76722612 7.72190827 13.38441687 8.90679969 15.00170898 10.09155273 C16.24549316 11.00759277 16.24549316 11.00759277 17.5144043 11.94213867 C21.50147819 14.8715757 25.51301019 17.76689845 29.52514648 20.66186523 C30.2740918 21.20319092 31.02303711 21.7445166 31.79467773 22.30224609 C37.16919136 26.18284133 42.57626666 30.01125753 48.02514648 33.78686523 C46.12262198 40.9858742 44.03128752 48.0890685 41.70483398 55.16186523 C41.40070587 56.09361572 41.09657776 57.02536621 40.78323364 57.98535156 C39.82469981 60.92001229 38.86248453 63.85345008 37.90014648 66.78686523 C37.2475597 68.78287954 36.59521394 70.77897267 35.94311523 72.77514648 C31.61880152 86.00590013 31.61880152 86.00590013 30.02514648 90.78686523 C9.89514648 90.78686523 -10.23485352 90.78686523 -30.97485352 90.78686523 C-33.59422852 82.86686523 -36.21360352 74.94686523 -38.91235352 66.78686523 C-39.73856201 64.30155273 -40.56477051 61.81624023 -41.41601562 59.25561523 C-42.07032522 57.26622335 -42.72408878 55.27665176 -43.37719727 53.28686523 C-43.71755005 52.26979492 -44.05790283 51.25272461 -44.40856934 50.20483398 C-46.20060195 44.72002704 -47.73788517 39.57431386 -47.97485352 33.78686523 C-45.82641602 31.23999023 -45.82641602 31.23999023 -42.59985352 29.03686523 C-42.01695557 28.62549316 -41.43405762 28.21412109 -40.83349609 27.7902832 C-39.56493416 26.89934667 -38.28719426 26.02136924 -37.00170898 25.1550293 C-34.2322907 23.28562192 -31.51232041 21.34925271 -28.78759766 19.41552734 C-27.3675198 18.41078759 -25.94348942 17.41161169 -24.515625 16.41796875 C-20.76485997 13.80287669 -17.08475416 11.12911162 -13.47485352 8.32202148 C-12.75080322 7.7617627 -12.02675293 7.20150391 -11.28076172 6.62426758 C-9.89578438 5.54559098 -8.5188878 4.45643666 -7.15136719 3.35571289 C-2.48672541 -0.2683782 -2.48672541 -0.2683782 0 0 Z " fill="#010101" transform="translate(79.974853515625,421.213134765625)"/>
<path d="M0 0 C3.94396969 2.44758119 7.64226429 5.16303209 11.34375 7.9609375 C13.03977666 9.22735025 14.73640679 10.49295516 16.43359375 11.7578125 C17.29710449 12.40298828 18.16061523 13.04816406 19.05029297 13.71289062 C23.14091906 16.75115966 27.27131691 19.73338688 31.40625 22.7109375 C32.49425903 23.49561401 32.49425903 23.49561401 33.60424805 24.29614258 C37.94661104 27.42525026 42.29895709 30.54015918 46.65625 33.6484375 C45.24045292 40.51120009 43.35908801 47.10533781 41.21484375 53.7734375 C40.88710464 54.80154541 40.55936554 55.82965332 40.22169495 56.88891602 C39.5335839 59.0442327 38.84352697 61.19892902 38.15161133 63.35302734 C37.08854534 66.66465087 36.03311874 69.97864168 34.97851562 73.29296875 C34.30774162 75.39076893 33.63653334 77.4884303 32.96484375 79.5859375 C32.48983681 81.07794678 32.48983681 81.07794678 32.00523376 82.60009766 C31.7114534 83.51194824 31.41767303 84.42379883 31.11499023 85.36328125 C30.85676987 86.16886475 30.5985495 86.97444824 30.33250427 87.80444336 C29.65625 89.6484375 29.65625 89.6484375 28.65625 90.6484375 C26.7844406 90.74230131 24.9090694 90.76587554 23.03491211 90.76196289 C21.83374252 90.76188736 20.63257294 90.76181183 19.39500427 90.76173401 C18.0877388 90.75657272 16.78047333 90.75141144 15.43359375 90.74609375 C14.08980868 90.74422948 12.74602293 90.74280562 11.40223694 90.74180603 C7.85942723 90.73798152 4.3166583 90.72815182 0.77386475 90.71710205 C-2.83890227 90.70688649 -6.45167584 90.7023081 -10.06445312 90.69726562 C-17.1575688 90.68652948 -24.25065674 90.66945386 -31.34375 90.6484375 C-33.97022664 84.82943323 -35.99509974 78.89741309 -37.953125 72.82421875 C-38.44972626 71.28848457 -38.44972626 71.28848457 -38.95635986 69.72172546 C-39.65074048 67.56828102 -40.34314931 65.41419989 -41.03369141 63.25952148 C-42.09464509 59.95815225 -43.17022514 56.6617684 -44.24609375 53.36523438 C-44.92017857 51.26852078 -45.5933864 49.171525 -46.265625 47.07421875 C-46.58948181 46.08875565 -46.91333862 45.10329254 -47.24700928 44.08796692 C-47.53771301 43.16988754 -47.82841675 42.25180817 -48.12792969 41.3059082 C-48.38757507 40.50095413 -48.64722046 39.69600006 -48.91473389 38.86665344 C-49.39713719 36.37240052 -49.28115586 35.00039074 -48.34375 32.6484375 C-46.39294725 31.01121046 -44.5141924 29.61623243 -42.40625 28.2109375 C-41.12565122 27.32776593 -39.84573682 26.44360142 -38.56640625 25.55859375 C-37.8820752 25.08953613 -37.19774414 24.62047852 -36.49267578 24.13720703 C-33.50819695 22.06956877 -30.56952881 19.94131781 -27.63134766 17.80859375 C-26.10642893 16.70192914 -24.57875069 15.59905702 -23.04833984 14.5 C-19.41406106 11.88973591 -15.80927906 9.25456868 -12.26171875 6.52734375 C-11.31329102 5.81191406 -11.31329102 5.81191406 -10.34570312 5.08203125 C-9.16770905 4.19187857 -8.0002177 3.28758846 -6.84570312 2.3671875 C-4.4418295 0.57095147 -3.04043963 -0.45606594 0 0 Z " fill="#010101" transform="translate(224.34375,421.3515625)"/>
<path d="M0 0 C-0.87140625 0.52207031 -1.7428125 1.04414062 -2.640625 1.58203125 C-24.39786475 14.90015512 -38.62374849 32.82198122 -45 58 C-49.80224294 80.61596845 -44.2724194 103.76467093 -32 123 C-23.41238528 135.59046593 -12.32255775 144.03726179 1 151 C1 151.33 1 151.66 1 152 C-15.45119339 152.68636009 -31.55541623 144.37120041 -43.4375 133.5 C-45.32884021 131.69863587 -47.16460378 129.86001405 -49 128 C-49.68964844 127.3090625 -50.37929687 126.618125 -51.08984375 125.90625 C-65.72437791 110.27900126 -69.66190684 89.54884486 -69.30859375 68.96875 C-68.66474834 51.9562705 -61.3509829 36.53201002 -50 24 C-49.36191406 23.29230469 -48.72382812 22.58460938 -48.06640625 21.85546875 C-39.74334105 13.09699169 -13.63065661 -6.8153283 0 0 Z " fill="#56A2FC" transform="translate(148,114)"/>
<path d="M0 0 C2.77585804 1.31958839 5.25689851 2.79019063 7.7578125 4.57421875 C8.46172119 5.07405273 9.16562988 5.57388672 9.89086914 6.08886719 C10.62813232 6.61641602 11.36539551 7.14396484 12.125 7.6875 C13.64703282 8.76967557 15.1691679 9.85170731 16.69140625 10.93359375 C17.42762207 11.45808105 18.16383789 11.98256836 18.92236328 12.52294922 C21.62650299 14.44539872 24.34275726 16.34969194 27.0625 18.25 C27.83722656 18.79140625 28.61195313 19.3328125 29.41015625 19.890625 C29.93480469 20.25671875 30.45945313 20.6228125 31 21 C30.26435431 25.21324352 29.04302383 29.21341701 27.71484375 33.26953125 C27.31128662 34.51581299 26.90772949 35.76209473 26.49194336 37.04614258 C25.97897705 38.61904053 25.46601074 40.19193848 24.9375 41.8125 C23.308125 46.824375 21.67875 51.83625 20 57 C7.46 57 -5.08 57 -18 57 C-20.7225 48.9253125 -20.7225 48.9253125 -23.5 40.6875 C-24.07427734 38.99197998 -24.64855469 37.29645996 -25.24023438 35.54956055 C-25.69176419 34.20373332 -26.14295894 32.85779361 -26.59375 31.51171875 C-26.83125977 30.81453735 -27.06876953 30.11735596 -27.31347656 29.39904785 C-28.2897462 26.47182379 -29 24.10863794 -29 21 C-27.01352708 19.35939987 -25.06878707 17.93045082 -22.9375 16.5 C-21.66197455 15.61832334 -20.38726446 14.73546616 -19.11328125 13.8515625 C-18.44377441 13.39040039 -17.77426758 12.92923828 -17.08447266 12.45410156 C-13.55234894 9.99013707 -10.09059383 7.43127748 -6.625 4.875 C-5.346371 3.93487293 -4.06772668 2.99476671 -2.7890625 2.0546875 C-1.86867187 1.37664062 -0.94828125 0.69859375 0 0 Z " fill="#FDFDFD" transform="translate(222,440)"/>
<path d="M0 0 C5.9530488 3.20548782 11.27913307 7.01567999 16.6875 11.0625 C17.52861328 11.68705078 18.36972656 12.31160156 19.23632812 12.95507812 C22.83175001 15.62669613 26.41718893 18.31150223 30 21 C29.41832029 25.79733486 28.45493716 30.17792139 26.96875 34.7734375 C26.57042969 36.00964844 26.17210937 37.24585938 25.76171875 38.51953125 C25.45113525 39.46820068 25.45113525 39.46820068 25.13427734 40.43603516 C24.49548046 42.38881607 23.86626575 44.34449959 23.23828125 46.30078125 C20.13823515 55.86176485 20.13823515 55.86176485 19 57 C16.26105915 57.08858646 13.5474673 57.11523479 10.80859375 57.09765625 C9.98875504 57.0962413 9.16891632 57.09482635 8.32423401 57.09336853 C5.69528618 57.08775289 3.06642227 57.07519779 0.4375 57.0625 C-1.34049357 57.05748701 -3.11848846 57.05292376 -4.89648438 57.04882812 C-9.26435545 57.03777839 -13.63216348 57.02050331 -18 57 C-19.5983558 52.3780466 -21.1828224 47.75165176 -22.75463867 43.12060547 C-23.29121416 41.54606693 -23.8315536 39.97280584 -24.37573242 38.40087891 C-25.15757947 36.14030561 -25.92574611 33.87547406 -26.69140625 31.609375 C-26.93717911 30.90818542 -27.18295197 30.20699585 -27.43617249 29.48455811 C-29.54382601 23.16665577 -29.54382601 23.16665577 -28 20 C-25.96618264 18.30267073 -24.00319805 16.83994532 -21.8125 15.375 C-20.54534251 14.5003337 -19.27842276 13.6253229 -18.01171875 12.75 C-17.35478027 12.30140625 -16.6978418 11.8528125 -16.02099609 11.390625 C-12.68939699 9.0981886 -9.40974866 6.73382637 -6.125 4.375 C-4.94034636 3.52830687 -3.75547302 2.68192099 -2.5703125 1.8359375 C-1.72210938 1.23007812 -0.87390625 0.62421875 0 0 Z " fill="#FDFDFE" transform="translate(79,440)"/>
<path d="M0 0 C2.49729852 1.31994245 4.68446331 2.7322571 6.94262695 4.42675781 C7.7521582 5.02939453 8.56168945 5.63203125 9.39575195 6.25292969 C10.22848633 6.88134766 11.0612207 7.50976562 11.91918945 8.15722656 C13.57250848 9.39334087 15.22614912 10.62902516 16.88012695 11.86425781 C17.66742188 12.45416504 18.4547168 13.04407227 19.26586914 13.65185547 C22.32810933 15.92720625 25.4299311 18.14124188 28.54418945 20.34472656 C26.98859428 28.2680053 24.51709696 35.77060191 21.91918945 43.40722656 C20.47543945 47.67660156 19.03168945 51.94597656 17.54418945 56.34472656 C5.33418945 56.34472656 -6.87581055 56.34472656 -19.45581055 56.34472656 C-22.23735399 49.85445852 -24.52878091 43.4218678 -26.70581055 36.71972656 C-27.27041992 35.04136719 -27.27041992 35.04136719 -27.84643555 33.32910156 C-28.19706055 32.24886719 -28.54768555 31.16863281 -28.90893555 30.05566406 C-29.23023438 29.07903809 -29.5515332 28.10241211 -29.88256836 27.09619141 C-30.52228692 24.02565128 -30.51524453 22.29344878 -29.45581055 19.34472656 C-27.72509766 17.5871582 -27.72509766 17.5871582 -25.4831543 16.00488281 C-24.66524414 15.41642578 -23.84733398 14.82796875 -23.00463867 14.22167969 C-21.71203125 13.32352539 -21.71203125 13.32352539 -20.39331055 12.40722656 C-18.71475498 11.21085067 -17.03636798 10.01423824 -15.3581543 8.81738281 C-14.53428223 8.24391113 -13.71041016 7.67043945 -12.86157227 7.07958984 C-11.27748987 5.93726292 -9.729538 4.74281248 -8.22583008 3.49658203 C-7.5398877 2.92955566 -6.85394531 2.3625293 -6.1472168 1.77832031 C-5.55239502 1.26197021 -4.95757324 0.74562012 -4.34472656 0.21362305 C-2.45581055 -0.65527344 -2.45581055 -0.65527344 0 0 Z " fill="#FDFDFE" transform="translate(367.455810546875,440.6552734375)"/>
<path d="M0 0 C3.73414092 0.43572885 6.10541673 1.47879259 9.109375 3.6953125 C9.86041504 4.24356689 10.61145508 4.79182129 11.38525391 5.35668945 C12.16562012 5.94023193 12.94598633 6.52377441 13.75 7.125 C14.54970215 7.7130542 15.3494043 8.3011084 16.17333984 8.90698242 C21.51714056 12.85033506 26.80990131 16.85601251 32 21 C31.108379 24.02209188 30.21084248 27.04239997 29.3125 30.0625 C28.94608398 31.30483398 28.94608398 31.30483398 28.57226562 32.57226562 C26.22280422 40.45337034 23.60552515 48.18342456 21 56 C8.46 56 -4.08 56 -17 56 C-20.63 44.45 -24.26 32.9 -28 21 C-13.11235217 9.54796321 -13.11235217 9.54796321 -7.25 5.4375 C-3.46028399 2.91600806 -3.46028399 2.91600806 0 0 Z " fill="#FDFDFD" transform="translate(411,323)"/>
<path d="M0 0 C3.73977395 1.84927405 6.8967999 4.27826364 10.16796875 6.8515625 C11.58759823 7.9439355 13.00817096 9.03508379 14.4296875 10.125 C15.46295166 10.92115723 15.46295166 10.92115723 16.51708984 11.73339844 C20.4124011 14.69581122 24.43919107 17.46761332 28.48046875 20.2265625 C27.93281586 28.11276408 25.39480437 35.26010926 22.91796875 42.7265625 C21.45359375 47.1815625 19.98921875 51.6365625 18.48046875 56.2265625 C5.94046875 56.2265625 -6.59953125 56.2265625 -19.51953125 56.2265625 C-21.37578125 50.8640625 -23.23203125 45.5015625 -25.14453125 39.9765625 C-25.7370166 38.29014648 -26.32950195 36.60373047 -26.93994141 34.86621094 C-27.39735102 33.5231919 -27.85364474 32.17979206 -28.30859375 30.8359375 C-28.55633545 30.14387207 -28.80407715 29.45180664 -29.05932617 28.73876953 C-30.69020994 23.85493381 -30.69020994 23.85493381 -29.8984375 20.93994141 C-28.31501864 18.97244255 -26.73763422 17.65367212 -24.66796875 16.203125 C-23.89839844 15.6565625 -23.12882813 15.11 -22.3359375 14.546875 C-21.53027344 13.98742187 -20.72460938 13.42796875 -19.89453125 12.8515625 C-18.31850715 11.74029674 -16.74298297 10.62832162 -15.16796875 9.515625 C-14.39163086 8.97583008 -13.61529297 8.43603516 -12.81542969 7.87988281 C-11.28546254 6.77812425 -9.78741239 5.63063665 -8.32519531 4.44042969 C-3.21991625 0.28954286 -3.21991625 0.28954286 0 0 Z " fill="#FDFDFD" transform="translate(270.51953125,322.7734375)"/>
<path d="M0 0 C2.23034672 0.83066868 3.87869432 1.84789725 5.80761719 3.23999023 C6.51152588 3.74304688 7.21543457 4.24610352 7.94067383 4.7644043 C8.67793701 5.30033203 9.4152002 5.83625977 10.17480469 6.38842773 C11.69684413 7.47970743 13.21897924 8.57085372 14.74121094 9.66186523 C15.47742676 10.19263672 16.21364258 10.7234082 16.97216797 11.27026367 C19.66926894 13.20862672 22.38784235 15.1137309 25.11230469 17.01342773 C26.4248605 17.93001448 27.73737106 18.84666604 29.04980469 19.76342773 C27.7296726 27.96794313 25.21058695 35.5777025 22.42480469 43.38842773 C20.98105469 47.47217773 19.53730469 51.55592773 18.04980469 55.76342773 C5.83980469 55.76342773 -6.37019531 55.76342773 -18.95019531 55.76342773 C-21.80440082 48.62791397 -24.38831221 41.68127787 -26.70019531 34.38842773 C-27.01601562 33.41776367 -27.33183594 32.44709961 -27.65722656 31.44702148 C-27.955 30.51245117 -28.25277344 29.57788086 -28.55957031 28.61499023 C-28.82737305 27.77790527 -29.09517578 26.94082031 -29.37109375 26.07836914 C-29.95019531 23.76342773 -29.95019531 23.76342773 -29.95019531 19.76342773 C-27.93593349 18.01855047 -26.03503133 16.59489735 -23.82519531 15.13842773 C-22.54334457 14.26561143 -21.26211287 13.39188542 -19.98144531 12.51733398 C-19.31757812 12.06890137 -18.65371094 11.62046875 -17.96972656 11.15844727 C-15.95709333 9.76819263 -13.99764398 8.32495915 -12.04394531 6.85327148 C-11.10832764 6.15548584 -11.10832764 6.15548584 -10.15380859 5.44360352 C-8.95306567 4.54553117 -7.75846837 3.63917101 -6.57080078 2.72387695 C-2.46568156 -0.29910434 -2.46568156 -0.29910434 0 0 Z " fill="#FDFDFD" transform="translate(126.9501953125,323.236572265625)"/>
<path d="M0 0 C3.65828102 1.21942701 4.22229956 2.70704729 5.95703125 6.01367188 C13.61047873 21.50688672 17.42355568 39.44500399 11.97265625 56.35546875 C11.65167969 57.22816406 11.33070313 58.10085937 11 59 C10.64808594 59.98613281 10.29617188 60.97226563 9.93359375 61.98828125 C7.20019671 69.08789666 3.65654563 75.00404349 -1 81 C-1.69029297 81.93779297 -1.69029297 81.93779297 -2.39453125 82.89453125 C-12.63296251 95.9654968 -28.21268505 102.03684242 -44 105 C-47.10472903 105.25238442 -49.88686383 105.22236687 -53 105 C-53 100.05 -53 95.1 -53 90 C-51.081875 89.7525 -49.16375 89.505 -47.1875 89.25 C-32.63090936 86.96073141 -21.69983747 81.03790835 -12.04296875 69.80859375 C-3.20481639 57.65824663 -0.9931092 44.69431267 -2 30 C-3.14623296 23.49870995 -5.87434856 17.89463377 -9.01171875 12.12890625 C-10 10 -10 10 -10 7 C-7.91796875 5.140625 -7.91796875 5.140625 -5.1875 3.25 C-4.29417969 2.61578125 -3.40085937 1.9815625 -2.48046875 1.328125 C-1.66191406 0.88984375 -0.84335937 0.4515625 0 0 Z " fill="#FDFEFF" transform="translate(442,151)"/>
<path d="M0 0 C3.55225704 1.71435014 6.74021634 3.77742023 10 6 C6.47169239 8.86392794 2.87015083 11.58784278 -0.8125 14.25 C-1.78832031 14.95640625 -2.76414063 15.6628125 -3.76953125 16.390625 C-4.50558594 16.92171875 -5.24164063 17.4528125 -6 18 C-5.47398157 25.68943303 -2.97082951 32.51080726 -0.4375 39.75 C0.40265239 42.15954177 1.23753293 44.57093004 2.06640625 46.984375 C2.43709229 48.04366211 2.80777832 49.10294922 3.18969727 50.19433594 C4 53 4 53 4 57 C-3.26 57 -10.52 57 -18 57 C-19.57076064 52.35656637 -21.1387376 47.71238154 -22.69970703 43.06567383 C-23.23161236 41.4850485 -23.76513164 39.90496535 -24.30029297 38.32543945 C-25.06902737 36.05560495 -25.83194572 33.78388706 -26.59375 31.51171875 C-26.83436157 30.80536789 -27.07497314 30.09901703 -27.32287598 29.3712616 C-28.29588092 26.45324788 -29 24.0986998 -29 21 C-27.01352708 19.35939987 -25.06878707 17.93045082 -22.9375 16.5 C-21.66197455 15.61832334 -20.38726446 14.73546616 -19.11328125 13.8515625 C-18.44377441 13.39040039 -17.77426758 12.92923828 -17.08447266 12.45410156 C-13.55234894 9.99013707 -10.09059383 7.43127748 -6.625 4.875 C-5.346371 3.93487293 -4.06772668 2.99476671 -2.7890625 2.0546875 C-1.86867187 1.37664062 -0.94828125 0.69859375 0 0 Z " fill="#BCD9FD" transform="translate(222,440)"/>
<path d="M0 0 C2.3125 1.6875 2.3125 1.6875 7.3125 6.6875 C-0.6075 12.1325 -0.6075 12.1325 -8.6875 17.6875 C-7.93635991 22.94548062 -7.08779435 26.94412873 -5.40234375 31.86328125 C-5.18179825 32.51451462 -4.96125275 33.16574799 -4.73402405 33.8367157 C-4.03677799 35.89316004 -3.33147474 37.94670973 -2.625 40 C-1.91607173 42.0714937 -1.20893637 44.14355739 -0.50526428 46.21684265 C0.12935717 48.0851115 0.76973322 49.95142266 1.41040039 51.81762695 C2.3125 54.6875 2.3125 54.6875 2.3125 56.6875 C-4.9475 56.6875 -12.2075 56.6875 -19.6875 56.6875 C-22.46904345 50.19723196 -24.76047036 43.76464124 -26.9375 37.0625 C-27.50210937 35.38414062 -27.50210937 35.38414062 -28.078125 33.671875 C-28.42875 32.59164062 -28.779375 31.51140625 -29.140625 30.3984375 C-29.46192383 29.42181152 -29.78322266 28.44518555 -30.11425781 27.43896484 C-30.75397638 24.36842472 -30.74693399 22.63622221 -29.6875 19.6875 C-27.95678711 17.92993164 -27.95678711 17.92993164 -25.71484375 16.34765625 C-24.89693359 15.75919922 -24.07902344 15.17074219 -23.23632812 14.56445312 C-21.9437207 13.66629883 -21.9437207 13.66629883 -20.625 12.75 C-18.94644444 11.5536241 -17.26805743 10.35701168 -15.58984375 9.16015625 C-14.35850708 8.29668579 -14.35850708 8.29668579 -13.10229492 7.41577148 C-10.11181976 5.275485 -7.22314811 3.0167096 -4.35058594 0.72119141 C-2.6875 -0.3125 -2.6875 -0.3125 0 0 Z " fill="#BCD9FD" transform="translate(367.6875,440.3125)"/>
<path d="M0 0 C7.72321429 4.32142857 7.72321429 4.32142857 10 7 C9.030625 7.515625 8.06125 8.03125 7.0625 8.5625 C3.01872775 10.84846921 -0.49537968 13.67091348 -4.08203125 16.609375 C-6 18 -6 18 -8 18 C-7.63648437 19.07483643 -7.27296875 20.14967285 -6.8984375 21.25708008 C-5.55208248 25.24188122 -4.21166766 29.22865916 -2.87304688 33.21606445 C-2.29263794 34.94219674 -1.71061526 36.66778728 -1.12695312 38.39282227 C-0.28872539 40.87115377 0.54369672 43.35136985 1.375 45.83203125 C1.63748535 46.60400345 1.8999707 47.37597565 2.17041016 48.17134094 C3.1894816 51.22759412 4 53.75552755 4 57 C-3.26 57 -10.52 57 -18 57 C-19.59474352 52.37651958 -21.18278178 47.75177142 -22.75463867 43.12060547 C-23.29121416 41.54606693 -23.8315536 39.97280584 -24.37573242 38.40087891 C-25.15757947 36.14030561 -25.92574611 33.87547406 -26.69140625 31.609375 C-26.93717911 30.90818542 -27.18295197 30.20699585 -27.43617249 29.48455811 C-29.54382601 23.16665577 -29.54382601 23.16665577 -28 20 C-25.96618264 18.30267073 -24.00319805 16.83994532 -21.8125 15.375 C-20.54534251 14.5003337 -19.27842276 13.6253229 -18.01171875 12.75 C-17.35478027 12.30140625 -16.6978418 11.8528125 -16.02099609 11.390625 C-12.68939699 9.0981886 -9.40974866 6.73382637 -6.125 4.375 C-4.94034636 3.52830687 -3.75547302 2.68192099 -2.5703125 1.8359375 C-1.72210938 1.23007812 -0.87390625 0.62421875 0 0 Z " fill="#BCD9FD" transform="translate(79,440)"/>
<path d="M0 0 C3.0176084 1.54958269 4.96226704 3.76711083 7.3125 6.1875 C5.20924758 7.81369517 3.10494271 9.43849532 1 11.0625 C0.10764648 11.75279297 0.10764648 11.75279297 -0.80273438 12.45703125 C-3.38778005 14.44997149 -5.97049068 16.37616045 -8.6875 18.1875 C-6.34034995 27.25639248 -3.43047993 36.07524661 -0.38476562 44.9296875 C-0.03736328 45.95320313 0.31003906 46.97671875 0.66796875 48.03125 C1.14206177 49.41086914 1.14206177 49.41086914 1.62573242 50.81835938 C2.3125 53.1875 2.3125 53.1875 2.3125 56.1875 C-4.9475 56.1875 -12.2075 56.1875 -19.6875 56.1875 C-21.30482015 51.56512758 -22.91240129 46.94147696 -24.49707031 42.30810547 C-25.0388694 40.73299495 -25.58604007 39.15972148 -26.13867188 37.58837891 C-26.93217988 35.32916457 -27.70612682 33.06404495 -28.4765625 30.796875 C-28.72749664 30.09568542 -28.97843079 29.39449585 -29.23696899 28.67205811 C-30.85789629 23.81483164 -30.85789629 23.81483164 -30.06640625 20.90087891 C-28.48298739 18.93338005 -26.90560297 17.61460962 -24.8359375 16.1640625 C-24.06636719 15.6175 -23.29679688 15.0709375 -22.50390625 14.5078125 C-21.69824219 13.94835937 -20.89257812 13.38890625 -20.0625 12.8125 C-18.4864759 11.70123424 -16.91095172 10.58925912 -15.3359375 9.4765625 C-14.56258057 8.93523682 -13.78922363 8.39391113 -12.99243164 7.83618164 C-10.05382483 5.73424204 -7.20557842 3.52434352 -4.37036133 1.28540039 C-2.6875 0.1875 -2.6875 0.1875 0 0 Z " fill="#BCD9FD" transform="translate(270.6875,322.8125)"/>
<path d="M0 0 C2.77781691 1.38289586 5.27214078 3.11414322 7.8046875 4.8984375 C3.1173213 10.07070365 -2.51259431 13.88769243 -8.1953125 17.8984375 C-6.51885241 26.33367879 -3.78391059 34.26260764 -0.94140625 42.3671875 C-0.58949219 43.39328125 -0.23757812 44.419375 0.125 45.4765625 C0.44742676 46.39856445 0.76985352 47.32056641 1.10205078 48.27050781 C1.8046875 50.8984375 1.8046875 50.8984375 1.8046875 55.8984375 C-5.1253125 55.8984375 -12.0553125 55.8984375 -19.1953125 55.8984375 C-22.09491386 48.8547156 -24.6439167 41.78320537 -26.9453125 34.5234375 C-27.26113281 33.55277344 -27.57695313 32.58210938 -27.90234375 31.58203125 C-28.20011719 30.64746094 -28.49789062 29.71289062 -28.8046875 28.75 C-29.07249023 27.91291504 -29.34029297 27.07583008 -29.61621094 26.21337891 C-30.1953125 23.8984375 -30.1953125 23.8984375 -30.1953125 19.8984375 C-28.18105068 18.15356024 -26.28014851 16.72990712 -24.0703125 15.2734375 C-22.78846176 14.4006212 -21.50723006 13.52689519 -20.2265625 12.65234375 C-19.56269531 12.20391113 -18.89882812 11.75547852 -18.21484375 11.29345703 C-16.20221051 9.9032024 -14.24276117 8.45996891 -12.2890625 6.98828125 C-11.35344482 6.29049561 -11.35344482 6.29049561 -10.39892578 5.57861328 C-9.19818286 4.68054094 -8.00358556 3.77418078 -6.81591797 2.85888672 C-2.76022523 -0.12769725 -2.76022523 -0.12769725 0 0 Z " fill="#BCD9FD" transform="translate(127.1953125,323.1015625)"/>
<path d="M0 0 C4.51020195 0.38658874 7.38429295 2.39332748 11 5 C7.75042141 8.50697095 4.18687827 11.09368873 0.25 13.75 C-0.35199219 14.16121094 -0.95398438 14.57242187 -1.57421875 14.99609375 C-3.04686657 16.00123432 -4.52307502 17.00115478 -6 18 C-3.69906973 25.8832888 -1.1246768 33.65175665 1.5703125 41.40820312 C1.869375 42.28798828 2.1684375 43.16777344 2.4765625 44.07421875 C2.74549316 44.85369873 3.01442383 45.63317871 3.29150391 46.4362793 C4.15411065 49.5576554 4.54202447 52.79417131 5 56 C-2.26 56 -9.52 56 -17 56 C-20.63 44.45 -24.26 32.9 -28 21 C-13.11235217 9.54796321 -13.11235217 9.54796321 -7.25 5.4375 C-3.46028399 2.91600806 -3.46028399 2.91600806 0 0 Z " fill="#BCD9FD" transform="translate(411,323)"/>
<path d="M0 0 C-1 3 -1 3 -3.15234375 4.32421875 C-4.07144531 4.77410156 -4.99054688 5.22398438 -5.9375 5.6875 C-26.42961132 16.45049767 -38.4151246 34.654992 -48 55 C-48.60585937 54.80664062 -49.21171875 54.61328125 -49.8359375 54.4140625 C-55.83842217 52.54867496 -61.8158897 51.11840293 -68 50 C-64.78100023 42.89446595 -61.00281578 36.97075188 -56 31 C-55.48953125 30.34386719 -54.9790625 29.68773438 -54.453125 29.01171875 C-42.356422 14.07049401 -19.68636296 0 0 0 Z " fill="#56A1FA" transform="translate(287,16)"/>
<path d="M0 0 C0.77923828 0.01353516 1.55847656 0.02707031 2.36132812 0.04101562 C4.26202404 0.07599776 6.16235834 0.12979041 8.0625 0.1875 C7.14791016 0.61675781 7.14791016 0.61675781 6.21484375 1.0546875 C-1.25689613 4.98718217 -5.44497297 13.34649937 -8.359375 20.9375 C-9.22823123 24.31899452 -9.54729408 27.71900289 -9.9375 31.1875 C-13.04061638 31.85911995 -16.14515168 32.52393675 -19.25 33.1875 C-20.13107422 33.37828125 -21.01214844 33.5690625 -21.91992188 33.765625 C-22.76748047 33.94609375 -23.61503906 34.1265625 -24.48828125 34.3125 C-25.65870972 34.56386719 -25.65870972 34.56386719 -26.8527832 34.8203125 C-28.9375 35.1875 -28.9375 35.1875 -31.9375 35.1875 C-32.2675 36.1775 -32.5975 37.1675 -32.9375 38.1875 C-33.5760145 27.07261803 -31.25697642 17.79283039 -23.9375 9.1875 C-16.7145665 2.46371231 -9.75015494 -0.32584065 0 0 Z " fill="#56A1FA" transform="translate(189.9375,73.8125)"/>
<path d="M0 0 C1.98 0 3.96 0 6 0 C6 0.99 6 1.98 6 3 C12.27 4.32 18.54 5.64 25 7 C25 4.69 25 2.38 25 0 C96.61 0 168.22 0 242 0 C242 0.33 242 0.66 242 1 C170.72 1 99.44 1 26 1 C26 3.31 26 5.62 26 8 C19.07 8 12.14 8 5 8 C5 5.69 5 3.38 5 1 C3.35 1 1.7 1 0 1 C0 0.67 0 0.34 0 0 Z " fill="#576576" transform="translate(150,266)"/>
<path d="M0 0 C3.83663072 1.34929464 6.65172569 3.07751025 9.8125 5.625 C10.99779297 6.57246094 10.99779297 6.57246094 12.20703125 7.5390625 C12.79871094 8.02117187 13.39039063 8.50328125 14 9 C10.79239749 12.80635497 7.59253891 16.54563567 4 20 C-0.04420651 18.22054913 -3.46078487 15.60470327 -7 13 C-5.35821735 8.22390502 -2.73453298 4.20617096 0 0 Z " fill="#FCFDFF" transform="translate(422,132)"/>
<path d="M0 0 C1.9169986 0.31045732 3.83358723 0.62344671 5.75 0.9375 C7.35101563 1.19853516 7.35101563 1.19853516 8.984375 1.46484375 C11.36347593 1.88704171 13.66915211 2.37202884 16 3 C15.21824485 7.84688192 13.60155722 12.3766367 12 17 C10.02043559 16.85966889 8.04134859 16.7125877 6.0625 16.5625 C4.96035156 16.48128906 3.85820312 16.40007812 2.72265625 16.31640625 C0 16 0 16 -1 15 C-1.1328125 13.14453125 -1.1328125 13.14453125 -1.125 10.8125 C-1.12757813 10.05582031 -1.13015625 9.29914063 -1.1328125 8.51953125 C-0.9802914 5.62611631 -0.51938767 2.84838796 0 0 Z " fill="#FDFDFF" transform="translate(396,123)"/>
<path d="M0 0 C1.98 0 3.96 0 6 0 C6 0.99 6 1.98 6 3 C12.27 4.32 18.54 5.64 25 7 C25 7.33 25 7.66 25 8 C18.4 8 11.8 8 5 8 C5 5.69 5 3.38 5 1 C3.35 1 1.7 1 0 1 C0 0.67 0 0.34 0 0 Z " fill="#5697E4" transform="translate(150,266)"/>
</svg>
