<?xml version="1.0" encoding="UTF-8"?>
<svg version="1.1" xmlns="http://www.w3.org/2000/svg" width="512" height="512">
<path d="M0 0 C14.50767163 12.19163209 26.19795884 26.0465356 33 44 C33 44.66 33 45.32 33 46 C34.2060791 45.9685791 34.2060791 45.9685791 35.43652344 45.93652344 C76.55932257 45.00964722 111.41463446 55.43114594 142 84 C156.90988669 98.4759495 170.7473263 118.61649011 176 139 C176 139.99 176 140.98 176 142 C176.53625 142.01417969 177.0725 142.02835938 177.625 142.04296875 C201.17950681 143.47638446 224.23350744 157.17539191 239.67089844 174.42529297 C247.82150234 184.08205181 253.77656593 195.12825836 258 207 C258.22445801 207.6300293 258.44891602 208.26005859 258.68017578 208.90917969 C266.54406477 232.33789576 263.40012859 259.24917975 252.9140625 281.27734375 C241.37556322 304.32475642 221.13932495 321.39645398 197 330 C182.67674664 334.59800601 168.71387497 334.57004111 153.79833984 334.51757812 C151.18965771 334.52300806 148.58097864 334.53013559 145.9723053 334.53881836 C139.66156963 334.55647706 133.35102571 334.55282105 127.04028295 334.5411678 C121.90636243 334.53208499 116.77249515 334.53093025 111.63856888 334.53526306 C110.9041816 334.53587599 110.16979432 334.53648893 109.41315288 334.53712043 C107.92066591 334.5383995 106.42817896 334.53969635 104.93569203 334.5410108 C90.98647793 334.5523791 77.03736951 334.53936125 63.08817275 334.51780933 C51.14954935 334.49993425 39.21108155 334.5030531 27.27246094 334.52148438 C13.36552489 334.54294475 -0.54131895 334.55128866 -14.44826925 334.53903532 C-15.93424629 334.53776129 -17.42022334 334.5365038 -18.90620041 334.53526306 C-19.63709238 334.53464596 -20.36798435 334.53402886 -21.12102456 334.53339306 C-26.24282152 334.52995617 -31.36455939 334.53573224 -36.4863472 334.54518127 C-43.39273557 334.55764425 -50.298827 334.54862987 -57.20518684 334.52560425 C-59.73061069 334.52034213 -62.25605939 334.52178777 -64.78147316 334.53065491 C-81.08621885 334.58260015 -95.67899564 334.01854798 -110.375 326.1875 C-111.03927002 325.84493164 -111.70354004 325.50236328 -112.38793945 325.14941406 C-117.73251821 322.31620632 -122.42738034 318.95979435 -127 315 C-127.79277344 314.40316406 -128.58554688 313.80632812 -129.40234375 313.19140625 C-139.12254199 304.99135931 -145.54544315 293.73987258 -150 282 C-150.433125 280.88882812 -150.86625 279.77765625 -151.3125 278.6328125 C-157.84371817 258.63095684 -155.2424898 236.26800689 -146.1875 217.625 C-143.07915425 211.53697482 -139.48205254 206.17570352 -135 201 C-134.40316406 200.20722656 -133.80632812 199.41445313 -133.19140625 198.59765625 C-122.29565038 185.68200981 -106.30661534 178.18844434 -90 175 C-90 173.02 -90 171.04 -90 169 C-91.8871875 168.443125 -91.8871875 168.443125 -93.8125 167.875 C-116.39741647 160.25259069 -134.43806042 142.03859349 -145.0390625 121.08203125 C-146.92668147 117.13705924 -148.53459293 113.11914425 -150 109 C-150.22445801 108.3699707 -150.44891602 107.73994141 -150.68017578 107.09082031 C-158.54406477 83.66210424 -155.40012859 56.75082025 -144.9140625 34.72265625 C-132.57691653 10.07999801 -111.04956558 -6.46288735 -85.3203125 -15.2578125 C-56.95150704 -23.74983756 -23.61182839 -17.87404977 0 0 Z " fill="#BFBFBE" transform="translate(234,130)"/>
<path d="M0 0 C14.39168646 12.09416308 26.49466208 26.04776939 33 44 C33 44.99 33 45.98 33 47 C31.79730469 47.12955078 31.79730469 47.12955078 30.5703125 47.26171875 C14.44618304 49.25438328 -0.4123276 53.9006388 -15 61 C-15.97324219 61.47179687 -16.94648438 61.94359375 -17.94921875 62.4296875 C-48.95717799 78.4542387 -71.99602887 107.06243775 -83 140 C-85.79729913 149.47647893 -87.56982991 159.23344373 -89 169 C-106.33344247 166.59536058 -123.96007494 151.46663978 -134.33691406 138.30419922 C-141.07573041 129.28192082 -146.22805127 119.6026518 -150 109 C-150.22445801 108.3699707 -150.44891602 107.73994141 -150.68017578 107.09082031 C-158.54406477 83.66210424 -155.40012859 56.75082025 -144.9140625 34.72265625 C-132.57691653 10.07999801 -111.04956558 -6.46288735 -85.3203125 -15.2578125 C-56.95150704 -23.74983756 -23.61182839 -17.87404977 0 0 Z " fill="#FED801" transform="translate(234,130)"/>
<path d="M0 0 C5.15451012 2.85276676 9.1294548 6.79512987 13.25 10.9375 C13.87390625 11.54529297 14.4978125 12.15308594 15.140625 12.77929688 C19.62441343 17.25825364 22.27746633 20.88620327 22.3125 27.4375 C22.1749804 32.31540094 21.09704377 35.88576735 17.5703125 39.44140625 C13.20815315 43.25015732 10.04101582 44.09589367 4.328125 44.328125 C-3.30558207 43.2522334 -7.66734894 38.90219408 -12.8125 33.5625 C-13.47958984 32.89412109 -14.14667969 32.22574219 -14.83398438 31.53710938 C-19.48105035 26.80563655 -22.27800051 23.54536382 -22.375 16.6875 C-22.2506109 11.19974537 -21.42699933 8.30571711 -18 4 C-12.55483181 -0.33390937 -6.86995971 -1.32903915 0 0 Z " fill="#FFD900" transform="translate(80,90)"/>
<path d="M0 0 C4.97387583 2.62569411 8.23317796 5.94953387 10.0078125 11.2734375 C10.24609375 13.2890625 10.24609375 13.2890625 10.3203125 15.5234375 C10.37638672 16.61398437 10.37638672 16.61398437 10.43359375 17.7265625 C9.2463296 24.82836272 3.99914684 29.75059001 -0.9296875 34.5859375 C-1.53748047 35.20533203 -2.14527344 35.82472656 -2.77148438 36.46289062 C-7.42382844 41.08512243 -11.13010055 43.5408163 -17.8671875 43.6484375 C-23.09759331 43.51612069 -25.85546299 42.50008262 -29.9921875 39.2734375 C-33.96405791 34.28313878 -34.45033214 30.31573025 -34.5234375 24.01953125 C-33.2769747 17.57641838 -28.11026599 13.0531342 -23.6171875 8.5859375 C-23.06546875 8.01810547 -22.51375 7.45027344 -21.9453125 6.86523438 C-15.75600472 0.66866215 -8.78151618 -3.20267061 0 0 Z " fill="#FFD900" transform="translate(91.9921875,282.7265625)"/>
<path d="M0 0 C4.36678277 2.24443243 6.95994827 4.87012787 8.94140625 9.30859375 C9.66516925 14.74054697 10.0087684 19.37559579 7.30859375 24.265625 C4.59495895 27.75394432 1.69697412 30.88355911 -1.43359375 33.99609375 C-1.9853125 34.56392578 -2.53703125 35.13175781 -3.10546875 35.71679688 C-7.50726685 40.12376141 -11.97251981 43.73412389 -18.49609375 43.74609375 C-23.39828363 43.55627832 -26.12620353 42.23860999 -30.05859375 39.30859375 C-34.17238294 34.00397085 -35.60884422 30.02164951 -35.05859375 23.30859375 C-32.86836421 17.25662304 -29.2584179 12.90753132 -24.68359375 8.49609375 C-24.131875 7.93728516 -23.58015625 7.37847656 -23.01171875 6.80273438 C-16.45471323 0.34577706 -9.17752487 -3.0823945 0 0 Z " fill="#FFD900" transform="translate(285.05859375,90.69140625)"/>
<path d="M0 0 C1.258125 -0.01546875 2.51625 -0.0309375 3.8125 -0.046875 C15.18707649 0.00132236 15.18707649 0.00132236 20 4.5 C23.62833663 8.31930172 24.31000458 11.38279006 24.5 16.5 C24.25785043 23.02189504 22.4755875 26.1860488 17.7265625 30.625 C12.54730228 33.98400724 5.92240933 33.07281651 0 33 C-1.258125 33.01546875 -2.51625 33.0309375 -3.8125 33.046875 C-15.18707649 32.99867764 -15.18707649 32.99867764 -20 28.5 C-23.62833663 24.68069828 -24.31000458 21.61720994 -24.5 16.5 C-24.25785043 9.97810496 -22.4755875 6.8139512 -17.7265625 2.375 C-12.54730228 -0.98400724 -5.92240933 -0.07281651 0 0 Z " fill="#FFD800" transform="translate(40,191.5)"/>
<path d="M0 0 C4.63467863 2.15181508 8.10620753 5.19157704 10 10 C10.59657804 14.67344697 10.55785226 19.29468263 10.5 24 C10.51546875 25.258125 10.5309375 26.51625 10.546875 27.8125 C10.49867764 39.18707649 10.49867764 39.18707649 6 44 C2.18069828 47.62833663 -0.88279006 48.31000458 -6 48.5 C-12.52189504 48.25785043 -15.6860488 46.4755875 -20.125 41.7265625 C-23.48400724 36.54730228 -22.57281651 29.92240933 -22.5 24 C-22.51546875 22.741875 -22.5309375 21.48375 -22.546875 20.1875 C-22.49867764 8.81292351 -22.49867764 8.81292351 -18 4 C-12.72867143 -1.00776214 -6.89190982 -0.92775709 0 0 Z " fill="#FFD800" transform="translate(182,48)"/>
</svg>
