<?xml version="1.0" encoding="UTF-8"?>
<svg version="1.1" xmlns="http://www.w3.org/2000/svg" width="512" height="512">
<path d="M0 0 C0.7486734 -0.0010675 1.4973468 -0.00213501 2.26870728 -0.00323486 C14.94103448 0.02278183 26.56491599 1.31125175 38.625 5.4375 C39.31529297 5.66743652 40.00558594 5.89737305 40.71679688 6.13427734 C69.49081239 15.97398788 94.43609426 37.48646304 108.0625 64.6875 C115.625 80.29517265 115.625 80.29517265 115.625 86.4375 C117.18734375 85.93089844 117.18734375 85.93089844 118.78125 85.4140625 C145.4037232 77.03349327 171.55371237 77.62557363 196.9375 89.75 C203.29880729 93.08624876 209.01007563 96.97067518 214.625 101.4375 C215.30820312 101.95570312 215.99140625 102.47390625 216.6953125 103.0078125 C232.98832285 116.13456983 243.17488214 136.33370125 247.625 156.4375 C247.625 157.7575 247.625 159.0775 247.625 160.4375 C248.26824219 160.45167969 248.91148437 160.46585938 249.57421875 160.48046875 C257.64966703 160.90670496 264.27874578 163.14248891 271.625 166.4375 C273.0171875 167.05238281 273.0171875 167.05238281 274.4375 167.6796875 C290.20602713 175.42643484 302.4912613 190.1270802 308.62890625 206.4375 C315.2633535 226.41889406 314.340245 246.48698386 305.5625 265.625 C296.36158318 282.86688899 281.34801262 295.92564903 262.5703125 301.76171875 C257.2634115 303.28180834 252.19034291 304.70051242 246.625 304.4375 C246.36235352 305.29037598 246.09970703 306.14325195 245.82910156 307.02197266 C243.88152681 312.54641928 241.08593014 317.65055983 238.39501953 322.84082031 C237.38362311 324.79583168 236.38485672 326.75694354 235.38671875 328.71875 C224.9785534 348.98631553 224.9785534 348.98631553 214.625 352.4375 C206.72526252 353.04980494 199.08346426 353.58925172 192.625 348.4375 C187.28112864 343.27335526 184.3337899 338.74169241 184 331.1875 C184.0672233 322.0451308 188.14822064 315.19851284 192.625 307.4375 C192.955 306.7775 193.285 306.1175 193.625 305.4375 C158.315 305.1075 123.005 304.7775 86.625 304.4375 C85.965 306.4175 85.305 308.3975 84.625 310.4375 C82.6590542 314.62833657 80.52540035 318.73171638 78.39501953 322.84082031 C77.38362311 324.79583168 76.38485672 326.75694354 75.38671875 328.71875 C64.9785534 348.98631553 64.9785534 348.98631553 54.625 352.4375 C46.72526252 353.04980494 39.08346426 353.58925172 32.625 348.4375 C27.28112864 343.27335526 24.3337899 338.74169241 24 331.1875 C24.08004543 322.68489668 27.48657066 316.4558965 31.62744141 309.19921875 C34.50177583 304.57986257 34.50177583 304.57986257 35.625 299.4375 C34.88894531 299.05078125 34.15289062 298.6640625 33.39453125 298.265625 C32.41871094 297.74484375 31.44289062 297.2240625 30.4375 296.6875 C29.47457031 296.17703125 28.51164063 295.6665625 27.51953125 295.140625 C24.625 293.4375 24.625 293.4375 22.50166321 291.36517334 C18.52372501 288.69952747 15.39188258 288.86328925 10.70385742 288.89160156 C9.81555237 288.88126389 8.92724731 288.87092621 8.01202393 288.86027527 C5.08465381 288.83084819 2.15797515 288.82934811 -0.76953125 288.828125 C-2.80264098 288.8131433 -4.83573853 288.79641618 -6.86882019 288.77801514 C-12.21337442 288.73432838 -17.55776447 288.7143395 -22.90246582 288.69927979 C-28.35890415 288.67971357 -33.81516505 288.63774297 -39.27148438 288.59765625 C-49.97260154 288.52233968 -60.67367902 288.47205688 -71.375 288.4375 C-71.35959167 289.3303923 -71.34418335 290.22328461 -71.32830811 291.14323425 C-71.31632385 292.31437271 -71.3043396 293.48551117 -71.29199219 294.69213867 C-71.27658386 295.85315598 -71.26117554 297.01417328 -71.24530029 298.21037292 C-71.42377925 302.65120231 -72.43319244 304.88760742 -74.625 308.75 C-75.35909903 310.08726623 -76.09069666 311.42590747 -76.8203125 312.765625 C-77.22540039 313.49330078 -77.63048828 314.22097656 -78.04785156 314.97070312 C-79.56688463 317.79415973 -80.9705186 320.66096003 -82.3671875 323.546875 C-82.88506836 324.61252686 -83.40294922 325.67817871 -83.93652344 326.77612305 C-84.95778164 328.88194981 -85.9742735 330.9900966 -86.98535156 333.10083008 C-90.73725574 340.72196386 -94.81588021 348.18335255 -102.90625 351.77734375 C-109.59430901 353.56576459 -117.47031929 353.72015624 -123.875 350.875 C-128.98359604 347.79449466 -133.14463417 342.9735866 -135.375 337.4375 C-137.20657119 326.32796982 -133.92613621 319.12504182 -128.63378906 309.72949219 C-126.24017074 305.37121274 -124.07836687 300.89404074 -121.875 296.4375 C-121.01129205 294.70789592 -120.14678397 292.97869102 -119.28125 291.25 C-118.91322266 290.51394531 -118.54519531 289.77789062 -118.16601562 289.01953125 C-117.90498047 288.49746094 -117.64394531 287.97539062 -117.375 287.4375 C-117.94130127 287.38996582 -118.50760254 287.34243164 -119.09106445 287.29345703 C-141.48913305 285.15272351 -162.82500779 272.3273246 -177.375 255.4375 C-195.8858872 231.86081062 -202.21689421 205.54292052 -199.09082031 175.72705078 C-195.3222203 151.43322041 -180.69369454 129.26707481 -161.375 114.4375 C-148.78344681 105.8450498 -133.11262477 96.79466207 -117.375 97.4375 C-117.313125 96.426875 -117.25125 95.41625 -117.1875 94.375 C-114.29713784 72.15045852 -100.49166921 51.23632937 -85.375 35.4375 C-84.76398438 34.76332031 -84.15296875 34.08914062 -83.5234375 33.39453125 C-62.17699452 10.64013139 -30.52726395 -0.00926025 0 0 Z " fill="#79828A" transform="translate(199.375,-0.43749999999999994)"/>
<path d="M0 0 C1.07765625 0.36351563 2.1553125 0.72703125 3.265625 1.1015625 C24.27441703 8.67449916 40.45171069 23.27063243 50.3125 43.265625 C54.23179408 51.66782845 56.31470595 60.24922859 57.3125 69.44140625 C58.21138852 72.7867016 59.16607178 73.99796684 62 76 C64.65756178 76.43609769 67.08020831 76.68071044 69.75 76.8125 C85.02370495 78.11484505 97.90371698 85.07367547 108.25 96.375 C119.44487966 110.41603551 122.59683731 125.10347661 120.71484375 142.66015625 C120.30254578 144.86575026 119.73250326 146.87919212 119 149 C118.68160156 149.92941406 118.36320312 150.85882813 118.03515625 151.81640625 C112.66131532 165.98380505 103.33294985 177.20803869 89.5625 183.875 C77.40331514 188.70791873 66.30268391 189.43609694 53.40258789 189.38818359 C51.55001009 189.39225605 49.69743472 189.39760169 47.84486389 189.40411377 C42.84479975 189.41771401 37.84492268 189.41251875 32.84485555 189.40297651 C27.59256467 189.3953408 22.340289 189.40243644 17.08799744 189.40713501 C8.2693293 189.4125817 -0.54926328 189.40543003 -9.36791992 189.39111328 C-19.53697581 189.37479397 -29.70585116 189.38007449 -39.87490267 189.3965925 C-48.6328281 189.41024446 -57.39069946 189.41210878 -66.14863211 189.40427649 C-71.36747382 189.39961967 -76.58623092 189.39891987 -81.80506706 189.40888596 C-86.71441201 189.41760733 -91.6235262 189.41144003 -96.53284645 189.39420319 C-98.32539361 189.39026558 -100.11796048 189.3913251 -101.91049957 189.39799118 C-121.22849112 189.46315949 -137.33465493 186.30248668 -151.78515625 172.4375 C-163.78116633 159.23554181 -167.74582119 143.41829085 -167.13183594 126.05615234 C-166.24374231 112.20518097 -158.4395017 99.65769846 -148.54150391 90.34570312 C-137.72041523 80.89910179 -124.97897411 76.60918639 -110.77734375 76.46875 C-107.25353283 75.87401398 -106.13079638 74.82796939 -104 72 C-103.20630467 69.84459721 -103.20630467 69.84459721 -102.9375 67.5 C-102.70740234 66.17355469 -102.70740234 66.17355469 -102.47265625 64.8203125 C-102.31667969 63.88960938 -102.16070312 62.95890625 -102 62 C-98.52678823 42.99156967 -87.58558763 24.59054776 -72 13 C-51.15061416 -1.34738665 -24.68440218 -8.52361954 0 0 Z " fill="#79828A" transform="translate(375,99)"/>
<path d="M0 0 C0.7486734 -0.0010675 1.4973468 -0.00213501 2.26870728 -0.00323486 C14.94103448 0.02278183 26.56491599 1.31125175 38.625 5.4375 C39.31529297 5.66743652 40.00558594 5.89737305 40.71679688 6.13427734 C69.49081239 15.97398788 94.43609426 37.48646304 108.0625 64.6875 C115.625 80.29517265 115.625 80.29517265 115.625 86.4375 C117.18734375 85.93089844 117.18734375 85.93089844 118.78125 85.4140625 C145.4037232 77.03349327 171.55371237 77.62557363 196.9375 89.75 C203.29880729 93.08624876 209.01007563 96.97067518 214.625 101.4375 C215.30820312 101.95570312 215.99140625 102.47390625 216.6953125 103.0078125 C232.98832285 116.13456983 243.17488214 136.33370125 247.625 156.4375 C247.625 157.7575 247.625 159.0775 247.625 160.4375 C248.26824219 160.45167969 248.91148437 160.46585938 249.57421875 160.48046875 C257.64966703 160.90670496 264.27874578 163.14248891 271.625 166.4375 C273.0171875 167.05238281 273.0171875 167.05238281 274.4375 167.6796875 C290.20602713 175.42643484 302.4912613 190.1270802 308.62890625 206.4375 C315.2633535 226.41889406 314.340245 246.48698386 305.5625 265.625 C296.36158318 282.86688899 281.34801262 295.92564903 262.5703125 301.76171875 C257.2634115 303.28180834 252.19034291 304.70051242 246.625 304.4375 C246.36235352 305.29037598 246.09970703 306.14325195 245.82910156 307.02197266 C243.88152681 312.54641928 241.08593014 317.65055983 238.39501953 322.84082031 C237.38362311 324.79583168 236.38485672 326.75694354 235.38671875 328.71875 C224.9785534 348.98631553 224.9785534 348.98631553 214.625 352.4375 C206.72526252 353.04980494 199.08346426 353.58925172 192.625 348.4375 C187.28112864 343.27335526 184.3337899 338.74169241 184 331.1875 C184.0672233 322.0451308 188.14822064 315.19851284 192.625 307.4375 C192.955 306.7775 193.285 306.1175 193.625 305.4375 C158.315 305.1075 123.005 304.7775 86.625 304.4375 C85.965 306.4175 85.305 308.3975 84.625 310.4375 C82.6590542 314.62833657 80.52540035 318.73171638 78.39501953 322.84082031 C77.38362311 324.79583168 76.38485672 326.75694354 75.38671875 328.71875 C64.9785534 348.98631553 64.9785534 348.98631553 54.625 352.4375 C46.72526252 353.04980494 39.08346426 353.58925172 32.625 348.4375 C27.28112864 343.27335526 24.3337899 338.74169241 24 331.1875 C24.08004543 322.68489668 27.48657066 316.4558965 31.62744141 309.19921875 C34.50177583 304.57986257 34.50177583 304.57986257 35.625 299.4375 C34.88894531 299.05078125 34.15289062 298.6640625 33.39453125 298.265625 C32.41871094 297.74484375 31.44289062 297.2240625 30.4375 296.6875 C29.47457031 296.17703125 28.51164063 295.6665625 27.51953125 295.140625 C24.625 293.4375 24.625 293.4375 22.50166321 291.36517334 C18.52372501 288.69952747 15.39188258 288.86328925 10.70385742 288.89160156 C9.81555237 288.88126389 8.92724731 288.87092621 8.01202393 288.86027527 C5.08465381 288.83084819 2.15797515 288.82934811 -0.76953125 288.828125 C-2.80264098 288.8131433 -4.83573853 288.79641618 -6.86882019 288.77801514 C-12.21337442 288.73432838 -17.55776447 288.7143395 -22.90246582 288.69927979 C-28.35890415 288.67971357 -33.81516505 288.63774297 -39.27148438 288.59765625 C-49.97260154 288.52233968 -60.67367902 288.47205688 -71.375 288.4375 C-71.35959167 289.3303923 -71.34418335 290.22328461 -71.32830811 291.14323425 C-71.31632385 292.31437271 -71.3043396 293.48551117 -71.29199219 294.69213867 C-71.27658386 295.85315598 -71.26117554 297.01417328 -71.24530029 298.21037292 C-71.42377925 302.65120231 -72.43319244 304.88760742 -74.625 308.75 C-75.35909903 310.08726623 -76.09069666 311.42590747 -76.8203125 312.765625 C-77.22540039 313.49330078 -77.63048828 314.22097656 -78.04785156 314.97070312 C-79.56688463 317.79415973 -80.9705186 320.66096003 -82.3671875 323.546875 C-82.88506836 324.61252686 -83.40294922 325.67817871 -83.93652344 326.77612305 C-84.95778164 328.88194981 -85.9742735 330.9900966 -86.98535156 333.10083008 C-90.73725574 340.72196386 -94.81588021 348.18335255 -102.90625 351.77734375 C-109.59430901 353.56576459 -117.47031929 353.72015624 -123.875 350.875 C-128.98359604 347.79449466 -133.14463417 342.9735866 -135.375 337.4375 C-137.20657119 326.32796982 -133.92613621 319.12504182 -128.63378906 309.72949219 C-126.24017074 305.37121274 -124.07836687 300.89404074 -121.875 296.4375 C-121.01129205 294.70789592 -120.14678397 292.97869102 -119.28125 291.25 C-118.91322266 290.51394531 -118.54519531 289.77789062 -118.16601562 289.01953125 C-117.90498047 288.49746094 -117.64394531 287.97539062 -117.375 287.4375 C-117.94130127 287.38996582 -118.50760254 287.34243164 -119.09106445 287.29345703 C-141.48913305 285.15272351 -162.82500779 272.3273246 -177.375 255.4375 C-195.8858872 231.86081062 -202.21689421 205.54292052 -199.09082031 175.72705078 C-195.3222203 151.43322041 -180.69369454 129.26707481 -161.375 114.4375 C-148.78344681 105.8450498 -133.11262477 96.79466207 -117.375 97.4375 C-117.313125 96.426875 -117.25125 95.41625 -117.1875 94.375 C-114.29713784 72.15045852 -100.49166921 51.23632937 -85.375 35.4375 C-84.76398438 34.76332031 -84.15296875 34.08914062 -83.5234375 33.39453125 C-62.17699452 10.64013139 -30.52726395 -0.00926025 0 0 Z M-30.375 20.4375 C-31.01050781 20.64648926 -31.64601562 20.85547852 -32.30078125 21.07080078 C-59.81658198 30.42253041 -81.48081058 50.30324812 -94.28173828 76.27734375 C-98.08880338 84.44004241 -100.35766146 92.61113787 -101.9074707 101.44848633 C-102.51341437 104.66023859 -103.17916121 107.14952901 -105.02734375 109.8671875 C-108.14315561 111.95130791 -111.17705772 112.3905332 -114.8125 112.875 C-135.80219348 116.26459543 -154.44862541 127.50276338 -167.375 144.4375 C-179.97794045 163.62678727 -185.30215738 184.88500341 -181.875 207.77734375 C-181.19260796 210.41773569 -180.35503794 212.8933215 -179.375 215.4375 C-178.82972656 217.01724609 -178.82972656 217.01724609 -178.2734375 218.62890625 C-170.42448359 240.47938116 -155.15079079 256.39131169 -134.375 266.4375 C-130.0968813 268.0465692 -125.80484824 269.32175269 -121.375 270.4375 C-120.23252808 270.77909149 -119.09005615 271.12068298 -117.91296387 271.47262573 C-112.50920891 272.81295614 -107.17365695 272.70161272 -101.63476562 272.66455078 C-100.48267609 272.66484283 -99.33058655 272.66513489 -98.14358521 272.66543579 C-94.35606208 272.66404848 -90.56873853 272.64851524 -86.78125 272.6328125 C-84.14709582 272.62908025 -81.51294025 272.62623428 -78.87878418 272.62423706 C-72.66705588 272.61803892 -66.45539859 272.60165085 -60.24370146 272.58153808 C-53.16748164 272.55912699 -46.0912583 272.54817259 -39.01501179 272.53814721 C-24.46830469 272.51728301 -9.92165334 272.48213968 4.625 272.4375 C4.21870361 271.57229736 3.81240723 270.70709473 3.39379883 269.81567383 C2.58978638 268.09127075 2.58978638 268.09127075 1.76953125 266.33203125 C1.23948486 265.19870361 0.70943848 264.06537598 0.16333008 262.89770508 C-7.01374095 246.75413616 -9.40792531 227.95865842 -3.75390625 210.9375 C1.15202601 198.48504871 6.84044623 188.65703024 16.625 179.4375 C17.41648438 178.68855469 18.20796875 177.93960938 19.0234375 177.16796875 C30.46186922 167.23059368 44.07834196 163.30409969 58.625 160.4375 C58.8209375 159.3959375 59.016875 158.354375 59.21875 157.28125 C64.26621754 132.40381869 77.94493869 112.23356648 98.453125 97.390625 C99.16984375 96.74609375 99.8865625 96.1015625 100.625 95.4375 C101.15551151 80.58317764 88.78502334 63.32872392 79.625 52.4375 C79.16867187 51.84839844 78.71234375 51.25929687 78.2421875 50.65234375 C63.83670327 32.58375067 38.39296275 19.62280884 15.5859375 16.72265625 C-0.09760066 15.59356524 -15.34411196 15.42336173 -30.375 20.4375 Z M93.21875 121.96484375 C81.95500543 135.09945001 75.32321118 149.53527824 73.21484375 166.78125 C72.53748561 169.83160454 71.42127359 171.89315237 69.625 174.4375 C66.97120355 175.76439823 64.77943526 175.62443442 61.8125 175.75 C45.57279122 176.93302514 32.80702946 183.78563737 21.625 195.4375 C10.46516642 209.00854046 7.37561118 223.1797857 8.625 240.4375 C10.5627876 254.19579193 18.31446895 267.60901365 28.96875 276.36328125 C43.80453679 287.32580092 58.09666195 288.7396138 75.96362305 288.72802734 C77.81266041 288.73401979 79.66169529 288.74082698 81.51072693 288.74838257 C86.51099596 288.76597799 91.51119644 288.77073525 96.51149344 288.77201414 C99.64242808 288.7734401 102.77334554 288.77771813 105.90427589 288.78300858 C116.84692101 288.80148834 127.78951754 288.80968187 138.73217773 288.80810547 C148.90004316 288.80690502 159.067696 288.82799375 169.23550767 288.8595928 C177.99171999 288.88582616 186.74786318 288.89646979 195.50411445 288.89519465 C200.72197795 288.89468704 205.9396524 288.90025827 211.15747643 288.92155075 C216.07011686 288.94105219 220.98239021 288.94097694 225.89504433 288.92651749 C227.68675911 288.92444289 229.4784976 288.92904866 231.27017212 288.9412384 C249.83541986 289.05925628 266.55314837 285.85609424 280.56640625 272.6171875 C292.82846437 259.63383184 297.23504248 244.31657085 296.890625 226.78515625 C296.26855747 212.80998238 288.83326354 200.10231421 278.9375 190.5 C273.12053961 185.61302387 266.54231993 182.48652624 259.625 179.4375 C258.83867187 179.06238281 258.05234375 178.68726563 257.2421875 178.30078125 C252.88016511 176.86196491 248.33873908 176.72189505 243.77539062 176.40234375 C240.22037806 176.07033377 238.12391812 175.78879519 235.15625 173.69921875 C233.35730476 171.04210321 233.00869006 169.30610153 232.6875 166.125 C229.60236859 144.42360556 218.06398623 125.4547517 200.9921875 111.79296875 C191.38228071 104.79376288 180.0963989 100.3013048 168.625 97.4375 C167.86574219 97.24414062 167.10648438 97.05078125 166.32421875 96.8515625 C139.1384856 92.68124743 112.14482535 102.0863198 93.21875 121.96484375 Z " fill="#000000" transform="translate(199.375,-0.43749999999999994)"/>
<path d="M0 0 C2.16925356 3.25388034 2.64364753 4.22355477 2 8 C-0.16015625 10.24609375 -0.16015625 10.24609375 -3.0625 12.4375 C-4.5784375 13.61892578 -4.5784375 13.61892578 -6.125 14.82421875 C-7.7276832 16.03711894 -9.33113145 17.24901619 -10.9375 18.45703125 C-27.61076235 31.72349721 -35.89120315 52.79841548 -40 73 C-41.56234375 73.29390625 -41.56234375 73.29390625 -43.15625 73.59375 C-57.68161819 76.54015876 -70.8976958 81.92320984 -82 92 C-82.68320313 92.60328125 -83.36640625 93.2065625 -84.0703125 93.828125 C-96.04440238 105.02822428 -104.54002107 121.9034889 -105.25 138.375 C-105.6386365 155.42665022 -101.62679135 169.83082593 -94 185 C-109.10888674 185.09388244 -124.21775996 185.16419255 -139.32687378 185.20724869 C-146.34399224 185.22778126 -153.36092836 185.25572106 -160.37792969 185.30175781 C-167.16013291 185.3462325 -173.94214732 185.36919294 -180.7244873 185.37950897 C-183.30142177 185.38685295 -185.87834687 185.40119289 -188.4552002 185.42292023 C-205.15770529 185.55804528 -221.07727113 185.46284686 -236.1875 177.375 C-236.83912109 177.03654053 -237.49074219 176.69808105 -238.16210938 176.34936523 C-258.57782542 165.35877224 -271.76753366 147.83559901 -279 126 C-284.7895027 105.5693933 -281.01902468 83.24292611 -271.06835938 64.83691406 C-268.77862237 60.89998966 -266.06364091 57.36043112 -263 54 C-261.52329645 56.95340709 -262.60591649 58.77009081 -263.4375 61.9375 C-268.125095 82.85965567 -264.60376741 106.78367209 -253.73046875 125.34375 C-239.95624102 146.4870341 -221.65923013 160.67189514 -196.94140625 166.4921875 C-190.22075251 167.65245973 -183.53961374 168.14980642 -176.72631836 168.20532227 C-175.95447205 168.21522186 -175.18262573 168.22512146 -174.38739014 168.23532104 C-171.87157104 168.26655644 -169.35573315 168.2915409 -166.83984375 168.31640625 C-165.08150277 168.3370087 -163.32316637 168.35800596 -161.56483459 168.37937927 C-156.96346783 168.43426043 -152.36205892 168.48381774 -147.76062012 168.53222656 C-143.0545685 168.58269142 -138.34857719 168.63824634 -133.64257812 168.69335938 C-124.42843708 168.80052485 -115.2142434 168.90206012 -106 169 C-106.33990967 168.19393311 -106.67981934 167.38786621 -107.0300293 166.55737305 C-107.47773682 165.49043213 -107.92544434 164.42349121 -108.38671875 163.32421875 C-108.82975342 162.27065186 -109.27278809 161.21708496 -109.72924805 160.1315918 C-116.47965731 143.49614518 -115.37306434 127.22600452 -108.6796875 110.75 C-101.35086973 95.05111166 -88.8623029 82.77289491 -72.515625 76.70703125 C-66.11747504 74.70218109 -59.93289104 72.83682252 -53.1875 72.9375 C-52.39730469 72.94652344 -51.60710937 72.95554687 -50.79296875 72.96484375 C-50.20128906 72.97644531 -49.60960937 72.98804688 -49 73 C-48.99742187 72.25878906 -48.99484375 71.51757812 -48.9921875 70.75390625 C-48.22162985 49.76905289 -37.32484051 31.50122463 -22.81640625 16.78515625 C-16.8586748 11.25221848 -10.10513362 6.41590088 -2.73828125 2.9296875 C-0.81830158 2.11809985 -0.81830158 2.11809985 0 0 Z " fill="#5C6870" transform="translate(298,87)"/>
<path d="M0 0 C0.66 0.33 1.32 0.66 2 1 C1.54625 1.37125 1.0925 1.7425 0.625 2.125 C-4.89018342 8.48867318 -3.55474252 18.71487013 -3.19091797 26.57861328 C-1.8613384 43.44149076 6.80519808 57.76230026 19 69 C30.18928583 77.72412129 43.97447157 83.34890149 58.22177124 83.24723816 C59.00967659 83.24965257 59.79758193 83.25206699 60.6093632 83.25455457 C63.22843141 83.26015424 65.84725164 83.25155679 68.46630859 83.24291992 C70.35271775 83.24399375 72.23912658 83.24593393 74.12553406 83.24867249 C79.2351057 83.25350849 84.34458963 83.24587997 89.45415068 83.23571944 C94.81062941 83.22691459 100.16710559 83.22869689 105.52359009 83.2290802 C114.51997335 83.2281444 123.51632284 83.21947302 132.51269531 83.20581055 C142.89866467 83.19009553 153.28459702 83.18481219 163.67057741 83.1855461 C174.74598523 83.18622292 185.82137887 83.17927306 196.8967824 83.1700995 C200.07932496 83.16797317 203.26186521 83.16725899 206.44440842 83.16686058 C211.45621647 83.165852 216.46799376 83.15971346 221.47979164 83.14969444 C223.31391143 83.14678702 225.14803476 83.14554049 226.98215675 83.14612198 C235.70868569 83.14784088 244.32758821 83.11170325 253 82 C242.87277634 92.76017514 230.14107767 99.44866192 215.18410492 100.18883705 C210.37075766 100.29352389 205.55738849 100.2821351 200.74316406 100.2746582 C198.89102982 100.27901022 197.03889737 100.28419499 195.18676758 100.29014587 C190.17417041 100.30349634 185.16164883 100.30411881 180.14903736 100.30158257 C175.95457093 100.3005099 171.76011961 100.30540395 167.56565642 100.310188 C157.66322552 100.32127012 147.76083254 100.32172827 137.85839844 100.31567383 C127.66725941 100.3096383 117.47625859 100.32193736 107.28514314 100.3432439 C98.51454615 100.36090149 89.74399299 100.3668546 80.9733789 100.36360615 C75.74442392 100.36179934 70.51556749 100.3643689 65.28662872 100.37832069 C60.36502466 100.39096175 55.44363474 100.38889592 50.52203369 100.37590981 C48.72464676 100.37355786 46.92724447 100.3762286 45.12987518 100.38453293 C25.79363439 100.4673683 9.68022221 97.31676102 -4.78515625 83.4375 C-16.78116633 70.23554181 -20.74582119 54.41829085 -20.13183594 37.05615234 C-19.1601852 21.9019996 -10.27519001 10.31175652 0 0 Z " fill="#5C6871" transform="translate(228,188)"/>
<path d="M0 0 C5.10859604 3.08050534 9.26963417 7.9014134 11.5 13.4375 C13.28310664 24.25306489 9.95109623 31.86194995 4.82714844 40.98681641 C3.3029045 43.80145228 1.90200324 46.66173007 0.5078125 49.54296875 C-0.01006836 50.60918457 -0.52794922 51.67540039 -1.06152344 52.77392578 C-2.08253812 54.88068531 -3.09902156 56.98964856 -4.11035156 59.10107422 C-7.86249134 66.72205913 -11.94088496 74.18335467 -20.03125 77.77734375 C-26.71930901 79.56576459 -34.59531929 79.72015624 -41 76.875 C-46.10859604 73.79449466 -50.26963417 68.9735866 -52.5 63.4375 C-54.28689706 52.59894404 -50.92432401 44.93490936 -45.77978516 35.7890625 C-44.3515215 33.16467572 -43.03578677 30.50010588 -41.73046875 27.8125 C-41.02047729 26.35360352 -41.02047729 26.35360352 -40.29614258 24.86523438 C-39.37221752 22.96183131 -38.45131256 21.05695826 -37.53393555 19.15039062 C-33.56738212 11.11041593 -29.50371142 3.88400635 -21.5 -0.5625 C-14.99603778 -2.73048741 -6.31713886 -2.87031164 0 0 Z " fill="#000001" transform="translate(436.5,433.5625)"/>
<path d="M0 0 C5.10859604 3.08050534 9.26963417 7.9014134 11.5 13.4375 C13.28310664 24.25306489 9.95109623 31.86194995 4.82714844 40.98681641 C3.3029045 43.80145228 1.90200324 46.66173007 0.5078125 49.54296875 C-0.01006836 50.60918457 -0.52794922 51.67540039 -1.06152344 52.77392578 C-2.08253812 54.88068531 -3.09902156 56.98964856 -4.11035156 59.10107422 C-7.86249134 66.72205913 -11.94088496 74.18335467 -20.03125 77.77734375 C-26.71930901 79.56576459 -34.59531929 79.72015624 -41 76.875 C-46.10859604 73.79449466 -50.26963417 68.9735866 -52.5 63.4375 C-54.28689706 52.59894404 -50.92432401 44.93490936 -45.77978516 35.7890625 C-44.3515215 33.16467572 -43.03578677 30.50010588 -41.73046875 27.8125 C-41.02047729 26.35360352 -41.02047729 26.35360352 -40.29614258 24.86523438 C-39.37221752 22.96183131 -38.45131256 21.05695826 -37.53393555 19.15039062 C-33.56738212 11.11041593 -29.50371142 3.88400635 -21.5 -0.5625 C-14.99603778 -2.73048741 -6.31713886 -2.87031164 0 0 Z " fill="#000001" transform="translate(276.5,433.5625)"/>
<path d="M0 0 C5.10859604 3.08050534 9.26963417 7.9014134 11.5 13.4375 C13.28310664 24.25306489 9.95109623 31.86194995 4.82714844 40.98681641 C3.3029045 43.80145228 1.90200324 46.66173007 0.5078125 49.54296875 C-0.01006836 50.60918457 -0.52794922 51.67540039 -1.06152344 52.77392578 C-2.08253812 54.88068531 -3.09902156 56.98964856 -4.11035156 59.10107422 C-7.86249134 66.72205913 -11.94088496 74.18335467 -20.03125 77.77734375 C-26.71930901 79.56576459 -34.59531929 79.72015624 -41 76.875 C-46.10859604 73.79449466 -50.26963417 68.9735866 -52.5 63.4375 C-54.28689706 52.59894404 -50.92432401 44.93490936 -45.77978516 35.7890625 C-44.3515215 33.16467572 -43.03578677 30.50010588 -41.73046875 27.8125 C-41.02047729 26.35360352 -41.02047729 26.35360352 -40.29614258 24.86523438 C-39.37221752 22.96183131 -38.45131256 21.05695826 -37.53393555 19.15039062 C-33.56738212 11.11041593 -29.50371142 3.88400635 -21.5 -0.5625 C-14.99603778 -2.73048741 -6.31713886 -2.87031164 0 0 Z " fill="#000001" transform="translate(356.5,353.5625)"/>
<path d="M0 0 C5.10859604 3.08050534 9.26963417 7.9014134 11.5 13.4375 C13.28310664 24.25306489 9.95109623 31.86194995 4.82714844 40.98681641 C3.3029045 43.80145228 1.90200324 46.66173007 0.5078125 49.54296875 C-0.01006836 50.60918457 -0.52794922 51.67540039 -1.06152344 52.77392578 C-2.08253812 54.88068531 -3.09902156 56.98964856 -4.11035156 59.10107422 C-7.86249134 66.72205913 -11.94088496 74.18335467 -20.03125 77.77734375 C-26.71930901 79.56576459 -34.59531929 79.72015624 -41 76.875 C-46.10859604 73.79449466 -50.26963417 68.9735866 -52.5 63.4375 C-54.28689706 52.59894404 -50.92432401 44.93490936 -45.77978516 35.7890625 C-44.3515215 33.16467572 -43.03578677 30.50010588 -41.73046875 27.8125 C-41.02047729 26.35360352 -41.02047729 26.35360352 -40.29614258 24.86523438 C-39.37221752 22.96183131 -38.45131256 21.05695826 -37.53393555 19.15039062 C-33.56738212 11.11041593 -29.50371142 3.88400635 -21.5 -0.5625 C-14.99603778 -2.73048741 -6.31713886 -2.87031164 0 0 Z " fill="#000001" transform="translate(196.5,353.5625)"/>
<path d="M0 0 C5.10859604 3.08050534 9.26963417 7.9014134 11.5 13.4375 C13.28310664 24.25306489 9.95109623 31.86194995 4.82714844 40.98681641 C3.3029045 43.80145228 1.90200324 46.66173007 0.5078125 49.54296875 C-0.01006836 50.60918457 -0.52794922 51.67540039 -1.06152344 52.77392578 C-2.08253812 54.88068531 -3.09902156 56.98964856 -4.11035156 59.10107422 C-7.86249134 66.72205913 -11.94088496 74.18335467 -20.03125 77.77734375 C-26.71930901 79.56576459 -34.59531929 79.72015624 -41 76.875 C-46.10859604 73.79449466 -50.26963417 68.9735866 -52.5 63.4375 C-54.28689706 52.59894404 -50.92432401 44.93490936 -45.77978516 35.7890625 C-44.3515215 33.16467572 -43.03578677 30.50010588 -41.73046875 27.8125 C-41.02047729 26.35360352 -41.02047729 26.35360352 -40.29614258 24.86523438 C-39.37221752 22.96183131 -38.45131256 21.05695826 -37.53393555 19.15039062 C-33.56738212 11.11041593 -29.50371142 3.88400635 -21.5 -0.5625 C-14.99603778 -2.73048741 -6.31713886 -2.87031164 0 0 Z " fill="#000001" transform="translate(116.5,433.5625)"/>
<path d="M0 0 C3.125 0.375 3.125 0.375 5.5625 1.9375 C7.36795266 4.75400614 7.23613695 6.12174197 6.67993164 9.34790039 C5.60115974 13.28852648 3.59091943 16.75322426 1.625 20.3125 C1.1808374 21.13355225 0.7366748 21.95460449 0.27905273 22.80053711 C-0.64081953 24.49460936 -1.56606424 26.18577511 -2.49658203 27.87402344 C-3.82092166 30.27688125 -5.12838582 32.68827419 -6.43359375 35.1015625 C-7.22525768 36.54759012 -8.01816561 37.9929376 -8.8125 39.4375 C-9.17730469 40.10966553 -9.54210937 40.78183105 -9.91796875 41.47436523 C-11.68187054 44.63071281 -12.81081239 46.33220826 -15.875 48.375 C-19.15435719 48.87951649 -20.45665416 48.65022753 -23.25 46.8125 C-24.875 44.375 -24.875 44.375 -24.67895508 41.14868164 C-23.82875498 37.15793068 -22.52835847 34.16670719 -20.63671875 30.55859375 C-20.31467972 29.93904312 -19.99264069 29.31949249 -19.6608429 28.6811676 C-18.98227663 27.3803628 -18.29878154 26.08211827 -17.6105957 24.78637695 C-16.56618166 22.81943366 -15.53674452 20.84523372 -14.50976562 18.86914062 C-4.97155064 0.64846313 -4.97155064 0.64846313 0 0 Z " fill="#5FB0E1" transform="translate(104.875,287.625)"/>
<path d="M0 0 C3.125 0.375 3.125 0.375 5.5625 1.9375 C7.36655139 4.75182017 7.23951161 6.11924025 6.68432617 9.34350586 C5.59240167 13.30941759 3.54779936 16.79516791 1.5625 20.375 C0.65220771 22.0520095 -0.25794667 23.72909386 -1.16796875 25.40625 C-1.62349121 26.23769531 -2.07901367 27.06914062 -2.54833984 27.92578125 C-3.78936586 30.2169062 -4.99100177 32.52314457 -6.17578125 34.84375 C-6.70353149 35.86855469 -6.70353149 35.86855469 -7.24194336 36.9140625 C-7.89624739 38.18685736 -8.54456798 39.46275265 -9.18579102 40.7421875 C-10.95481819 44.13534187 -12.53895543 46.43685265 -15.875 48.375 C-19.1891051 48.95496839 -20.42644995 48.67009872 -23.25 46.8125 C-24.875 44.375 -24.875 44.375 -24.66308594 41.11694336 C-23.86128644 37.30988606 -22.69812123 34.49932394 -20.890625 31.06640625 C-20.28476562 29.90689453 -19.67890625 28.74738281 -19.0546875 27.55273438 C-18.73725586 26.95807373 -18.41982422 26.36341309 -18.09277344 25.75073242 C-17.13195571 23.9505323 -16.1858087 22.14324766 -15.2421875 20.33398438 C-4.87350469 0.63567453 -4.87350469 0.63567453 0 0 Z " fill="#5FB0E2" transform="translate(424.875,447.625)"/>
<path d="M0 0 C3.125 0.375 3.125 0.375 5.5625 1.9375 C7.36655139 4.75182017 7.23951161 6.11924025 6.68432617 9.34350586 C5.59240167 13.30941759 3.54779936 16.79516791 1.5625 20.375 C0.65220771 22.0520095 -0.25794667 23.72909386 -1.16796875 25.40625 C-1.62349121 26.23769531 -2.07901367 27.06914062 -2.54833984 27.92578125 C-3.78936586 30.2169062 -4.99100177 32.52314457 -6.17578125 34.84375 C-6.70353149 35.86855469 -6.70353149 35.86855469 -7.24194336 36.9140625 C-7.89624739 38.18685736 -8.54456798 39.46275265 -9.18579102 40.7421875 C-10.95481819 44.13534187 -12.53895543 46.43685265 -15.875 48.375 C-19.1891051 48.95496839 -20.42644995 48.67009872 -23.25 46.8125 C-24.875 44.375 -24.875 44.375 -24.66308594 41.11694336 C-23.86128644 37.30988606 -22.69812123 34.49932394 -20.890625 31.06640625 C-20.28476563 29.90689453 -19.67890625 28.74738281 -19.0546875 27.55273438 C-18.73725586 26.95807373 -18.41982422 26.36341309 -18.09277344 25.75073242 C-17.13195571 23.9505323 -16.1858087 22.14324766 -15.2421875 20.33398438 C-4.87350469 0.63567453 -4.87350469 0.63567453 0 0 Z " fill="#5FB0E2" transform="translate(264.875,447.625)"/>
<path d="M0 0 C3.125 0.375 3.125 0.375 5.5625 1.9375 C7.36655139 4.75182017 7.23951161 6.11924025 6.68432617 9.34350586 C5.59240167 13.30941759 3.54779936 16.79516791 1.5625 20.375 C0.65220771 22.0520095 -0.25794667 23.72909386 -1.16796875 25.40625 C-1.62349121 26.23769531 -2.07901367 27.06914062 -2.54833984 27.92578125 C-3.78936586 30.2169062 -4.99100177 32.52314457 -6.17578125 34.84375 C-6.70353149 35.86855469 -6.70353149 35.86855469 -7.24194336 36.9140625 C-7.89624739 38.18685736 -8.54456798 39.46275265 -9.18579102 40.7421875 C-10.95481819 44.13534187 -12.53895543 46.43685265 -15.875 48.375 C-19.1891051 48.95496839 -20.42644995 48.67009872 -23.25 46.8125 C-24.875 44.375 -24.875 44.375 -24.66308594 41.11694336 C-23.86128644 37.30988606 -22.69812123 34.49932394 -20.890625 31.06640625 C-20.28476563 29.90689453 -19.67890625 28.74738281 -19.0546875 27.55273438 C-18.73725586 26.95807373 -18.41982422 26.36341309 -18.09277344 25.75073242 C-17.13195571 23.9505323 -16.1858087 22.14324766 -15.2421875 20.33398438 C-4.87350469 0.63567453 -4.87350469 0.63567453 0 0 Z " fill="#5FB0E2" transform="translate(104.875,447.625)"/>
<path d="M0 0 C3.125 0.375 3.125 0.375 5.5625 1.9375 C7.36655139 4.75182017 7.23951161 6.11924025 6.68432617 9.34350586 C5.59240167 13.30941759 3.54779936 16.79516791 1.5625 20.375 C0.65220771 22.0520095 -0.25794667 23.72909386 -1.16796875 25.40625 C-1.62349121 26.23769531 -2.07901367 27.06914062 -2.54833984 27.92578125 C-3.78936586 30.2169062 -4.99100177 32.52314457 -6.17578125 34.84375 C-6.70353149 35.86855469 -6.70353149 35.86855469 -7.24194336 36.9140625 C-7.89624739 38.18685736 -8.54456798 39.46275265 -9.18579102 40.7421875 C-10.95481819 44.13534187 -12.53895543 46.43685265 -15.875 48.375 C-19.1891051 48.95496839 -20.42644995 48.67009872 -23.25 46.8125 C-24.875 44.375 -24.875 44.375 -24.66308594 41.11694336 C-23.86128644 37.30988606 -22.69812123 34.49932394 -20.890625 31.06640625 C-20.28476562 29.90689453 -19.67890625 28.74738281 -19.0546875 27.55273438 C-18.73725586 26.95807373 -18.41982422 26.36341309 -18.09277344 25.75073242 C-17.13195571 23.9505323 -16.1858087 22.14324766 -15.2421875 20.33398438 C-4.87350469 0.63567453 -4.87350469 0.63567453 0 0 Z " fill="#5FB0E2" transform="translate(344.875,367.625)"/>
<path d="M0 0 C3.125 0.375 3.125 0.375 5.5625 1.9375 C7.36655139 4.75182017 7.23951161 6.11924025 6.68432617 9.34350586 C5.59240167 13.30941759 3.54779936 16.79516791 1.5625 20.375 C0.65220771 22.0520095 -0.25794667 23.72909386 -1.16796875 25.40625 C-1.62349121 26.23769531 -2.07901367 27.06914062 -2.54833984 27.92578125 C-3.78936586 30.2169062 -4.99100177 32.52314457 -6.17578125 34.84375 C-6.70353149 35.86855469 -6.70353149 35.86855469 -7.24194336 36.9140625 C-7.89624739 38.18685736 -8.54456798 39.46275265 -9.18579102 40.7421875 C-10.95481819 44.13534187 -12.53895543 46.43685265 -15.875 48.375 C-19.1891051 48.95496839 -20.42644995 48.67009872 -23.25 46.8125 C-24.875 44.375 -24.875 44.375 -24.66308594 41.11694336 C-23.86128644 37.30988606 -22.69812123 34.49932394 -20.890625 31.06640625 C-20.28476563 29.90689453 -19.67890625 28.74738281 -19.0546875 27.55273438 C-18.73725586 26.95807373 -18.41982422 26.36341309 -18.09277344 25.75073242 C-17.13195571 23.9505323 -16.1858087 22.14324766 -15.2421875 20.33398438 C-4.87350469 0.63567453 -4.87350469 0.63567453 0 0 Z " fill="#5FB0E2" transform="translate(184.875,367.625)"/>
<path d="M0 0 C6.93 0.495 6.93 0.495 14 1 C11.90003614 7.29989157 9.1790055 12.81751102 6.125 18.6875 C5.59519531 19.73228516 5.06539063 20.77707031 4.51953125 21.85351562 C4.00003906 22.85447266 3.48054688 23.85542969 2.9453125 24.88671875 C2.47625488 25.79639404 2.00719727 26.70606934 1.52392578 27.64331055 C-0.0843656 30.13046799 -1.48617043 31.46052056 -4 33 C-7.3141051 33.57996839 -8.55144995 33.29509872 -11.375 31.4375 C-13.21621436 28.67567846 -13.20986582 27.39861593 -12.65917969 24.19116211 C-11.1926103 19.31617684 -8.44346464 14.9644059 -5.9375 10.5625 C-5.36966797 9.54478516 -4.80183594 8.52707031 -4.21679688 7.47851562 C-2.82100807 4.98017096 -1.41182125 2.48931982 0 0 Z " fill="#5FB0E2" transform="translate(253,303)"/>
<path d="M0 0 C4.95 0 9.9 0 15 0 C12.90003614 6.29989157 10.1790055 11.81751102 7.125 17.6875 C6.59519531 18.73228516 6.06539063 19.77707031 5.51953125 20.85351562 C5.00003906 21.85447266 4.48054688 22.85542969 3.9453125 23.88671875 C3.47625488 24.79639404 3.00719727 25.70606934 2.52392578 26.64331055 C0.9156344 29.13046799 -0.48617043 30.46052056 -3 32 C-6.3141051 32.57996839 -7.55144995 32.29509872 -10.375 30.4375 C-12.22702095 27.65946857 -12.18107945 26.38171526 -11.62792969 23.15991211 C-10.27133294 18.49357797 -7.76054644 14.30546746 -5.4375 10.0625 C-4.65729492 8.6074707 -4.65729492 8.6074707 -3.86132812 7.12304688 C-2.58368819 4.74358901 -1.29312242 2.37107949 0 0 Z " fill="#5FB0E2" transform="translate(412,304)"/>
</svg>
