<?xml version="1.0" encoding="UTF-8"?>
<svg version="1.1" xmlns="http://www.w3.org/2000/svg" width="512" height="512">
<path d="M0 0 C4.65537285 2.16142311 7.98394317 5.23789443 10 10 C10.60512653 13.98452988 10.60490587 17.93619454 10.609375 21.9609375 C10.62591125 23.10664215 10.64244751 24.2523468 10.65948486 25.43276978 C10.70794148 29.08023452 10.72933168 32.72728236 10.75 36.375 C10.77816147 38.85288553 10.80808913 41.33075166 10.83984375 43.80859375 C10.91370005 49.87232021 10.96535637 55.93592953 11 62 C11.91486931 61.29813568 11.91486931 61.29813568 12.84822083 60.58209229 C22.55338064 53.13861252 32.27058238 45.72290262 42.1875 38.5625 C42.94659668 38.01376221 43.70569336 37.46502441 44.48779297 36.8996582 C51.17674187 32.09616931 55.60203055 31.21956043 64 32 C68.8846525 34.26787438 71.73212562 37.1153475 74 42 C74.72775082 47.40614898 75.00972035 52.03737222 72.47265625 56.96875 C69.35410305 60.79181048 65.87045568 63.55207459 61.9375 66.5 C61.14384033 67.10602051 60.35018066 67.71204102 59.5324707 68.33642578 C53.19506972 73.15561431 46.78688885 77.88120911 40.35742188 82.57666016 C35.93260138 85.81333441 31.54966093 89.09622652 27.203125 92.4375 C26.24188721 93.17629395 25.28064941 93.91508789 24.2902832 94.67626953 C22.41580354 96.12099044 20.5444418 97.56976753 18.67651367 99.02294922 C17.8332251 99.67279785 16.98993652 100.32264648 16.12109375 100.9921875 C15.3727124 101.57339355 14.62433105 102.15459961 13.85327148 102.75341797 C12 104 12 104 10 104 C6.51094179 129.88295922 6.51094179 129.88295922 13.40576172 153.53808594 C19.36438236 158.67512609 26.18625448 161.40367881 33.63134766 163.73388672 C37.27860885 165.10471558 39.9893113 166.95674175 43.16796875 169.19140625 C47.19995953 171.72215903 47.19995953 171.72215903 51.73779297 171.36181641 C54.66370882 169.76542995 57.29044846 167.93978729 60 166 C62.11997507 164.79381297 64.2547297 163.61329045 66.40234375 162.45703125 C68.58109263 161.24283946 70.75947552 160.02799073 72.9375 158.8125 C74.04673828 158.19697266 75.15597656 157.58144531 76.29882812 156.94726562 C77.36423828 156.35236328 78.42964844 155.75746094 79.52734375 155.14453125 C80.48374756 154.61190674 81.44015137 154.07928223 82.42553711 153.53051758 C83.27510986 153.02544678 84.12468262 152.52037598 85 152 C85.68767456 151.61670532 86.37534912 151.23341064 87.0838623 150.83850098 C89.88479669 148.15105288 89.80641425 145.87322153 90.23266602 142.0534668 C90.31621338 141.35065582 90.39976074 140.64784485 90.48583984 139.92373657 C90.75822326 137.60046066 91.00564227 135.27518438 91.25390625 132.94921875 C91.44089796 131.33098306 91.62980413 129.71296755 91.82054138 128.09516907 C92.31934184 123.83296463 92.79859229 119.56881919 93.27185059 115.30371094 C94.02910534 108.48746405 94.80550958 101.67356444 95.6014843 94.86173439 C95.87462551 92.4864449 96.13312217 90.10987386 96.39051819 87.73283386 C96.55867387 86.26672807 96.72738181 84.80068549 96.89672852 83.3347168 C97.10846458 81.42301949 97.10846458 81.42301949 97.32447815 79.47270203 C98.67023203 72.55449174 101.50598506 69.00605256 107 65 C112.39730471 63.20089843 117.10048284 63.30531096 122.25 65.625 C127.00982924 68.25272498 129.29616381 71.88849144 131 77 C130.96346606 79.53920064 130.86172838 82.02800955 130.69140625 84.55859375 C130.64383682 85.30854111 130.5962674 86.05848846 130.54725647 86.8311615 C129.97259473 95.27587848 128.97374525 103.66427358 127.9375 112.0625 C127.7488765 113.62298984 127.56072373 115.18353665 127.37304688 116.74414062 C126.92075176 120.49676833 126.4622219 124.24858263 126 128 C126.7748877 127.55720703 127.54977539 127.11441406 128.34814453 126.65820312 C133.17089844 123.90234375 137.99365234 121.14648438 142.81640625 118.390625 C143.42454163 118.04288025 144.032677 117.6951355 144.65924072 117.33685303 C145.89616372 116.63052413 147.13392376 115.92565914 148.37249756 115.222229 C151.54454433 113.41821205 154.69738066 111.58976974 157.82519531 109.70996094 C158.4461911 109.34173218 159.06718689 108.97350342 159.70700073 108.59411621 C161.41771309 107.57839782 163.12192682 106.55175698 164.82568359 105.52441406 C169.88916272 103.09276019 174.54304308 102.88531673 180 104 C184.90624714 106.27790046 187.5167579 109.21745967 190 114 C191.47643723 120.10260722 191.17155838 124.52502276 188 130 C183.62838243 134.64428645 178.33622373 137.7335933 172.75 140.6875 C171.1735744 141.54130034 169.598087 142.39683471 168.0234375 143.25390625 C167.20842773 143.69621582 166.39341797 144.13852539 165.55371094 144.59423828 C161.12054744 147.03459731 156.74868871 149.58002987 152.375 152.125 C151.53936523 152.61057373 150.70373047 153.09614746 149.84277344 153.59643555 C147.89437611 154.72958241 145.94674544 155.86401831 144 157 C147.82160726 160.35111602 152.31244191 161.9281717 156.96484375 163.80078125 C158.75221997 164.53776461 160.53932101 165.27541567 162.32617188 166.01367188 C165.13211995 167.16614552 167.93983537 168.31344278 170.75268555 169.44897461 C173.47564689 170.55129048 176.18926635 171.6743973 178.90234375 172.80078125 C179.73894028 173.13225662 180.5755368 173.46373199 181.43748474 173.80525208 C187.70218532 176.43204346 191.04313057 179.36581391 194.3125 185.4375 C195.91014264 191.39234983 195.17061793 195.89020871 192.27734375 201.203125 C189.65560285 204.89120089 186.1906716 206.60310947 182 208 C174.35254475 208.81672381 168.7490043 206.20492574 161.828125 203.14453125 C160.66931824 202.64588058 159.51051147 202.14722992 158.31658936 201.63346863 C155.24564172 200.30906791 152.18060503 198.97253682 149.11779785 197.6295166 C146.03596733 196.28145493 142.94751874 194.94875449 139.859375 193.61523438 C135.30003062 191.64479718 130.74475112 189.66544741 126.19238281 187.67895508 C125.1700354 187.23830719 124.14768799 186.7976593 123.09436035 186.34365845 C120.96064839 185.4171406 118.83528901 184.47122866 116.71716309 183.50961304 C115.66162231 183.0419754 114.60608154 182.57433777 113.51855469 182.0925293 C112.57743835 181.66667038 111.63632202 181.24081146 110.66668701 180.80204773 C106.59784126 179.57827888 104.03713845 180.50001967 100.29614258 182.3034668 C99.33861084 182.84656494 98.3810791 183.38966309 97.39453125 183.94921875 C96.32783203 184.55056641 95.26113281 185.15191406 94.16210938 185.77148438 C93.05673828 186.40376953 91.95136719 187.03605469 90.8125 187.6875 C89.72646484 188.30044922 88.64042969 188.91339844 87.52148438 189.54492188 C81.58930559 192.90470842 75.72183216 196.34397026 69.93237305 199.94458008 C68 201 68 201 66 201 C66 216.18 66 231.36 66 247 C67.65 247.66 69.3 248.32 71 249 C72.90709478 249.99890578 74.79812075 251.0288388 76.67578125 252.08203125 C77.75150391 252.68466797 78.82722656 253.28730469 79.93554688 253.90820312 C81.04994141 254.53662109 82.16433594 255.16503906 83.3125 255.8125 C84.41529297 256.42931641 85.51808594 257.04613281 86.65429688 257.68164062 C87.73388672 258.28814453 88.81347656 258.89464844 89.92578125 259.51953125 C91.49900146 260.4024585 91.49900146 260.4024585 93.10400391 261.30322266 C96.20511343 263.1201769 99.13952833 265.09819581 102.01245117 267.2565918 C108.81755364 269.80192247 116.85548682 264.71039572 122.92578125 262.01171875 C124.06855026 261.51211136 125.21131927 261.01250397 126.38871765 260.49775696 C129.41739129 259.17211407 132.44275774 257.83928747 135.46655273 256.50256348 C139.70861321 254.62951508 143.95681756 252.77043859 148.20414734 250.90937805 C150.45922076 249.92030241 152.71320306 248.92873393 154.96589661 247.93424988 C159.79542281 245.80768921 164.63307601 243.70452888 169.51245117 241.69458008 C170.66604378 241.21931633 170.66604378 241.21931633 171.84294128 240.73445129 C176.92840371 239.00291546 181.33664852 239.46747666 186.25 241.625 C191.00982924 244.25272498 193.29616381 247.88849144 195 253 C195.57439454 258.85882434 194.41252162 263.25767053 191 268 C186.64653426 272.06205401 181.7407199 274.06491378 176.32421875 276.328125 C175.3990596 276.72199402 174.47390045 277.11586304 173.52070618 277.52166748 C170.57939118 278.77187661 167.63357889 280.01106453 164.6875 281.25 C162.68654177 282.09823405 160.68588709 282.94718455 158.68554688 283.796875 C153.79385005 285.87289459 148.89841957 287.93989686 144 290 C146.84072022 292.33822565 149.58858738 294.47876204 152.828125 296.2265625 C153.53751221 296.61360352 154.24689941 297.00064453 154.9777832 297.39941406 C155.72761475 297.80385742 156.47744629 298.20830078 157.25 298.625 C158.85361367 299.50645106 160.45645873 300.38930167 162.05859375 301.2734375 C162.87440918 301.72299805 163.69022461 302.17255859 164.53076172 302.63574219 C168.47355867 304.81414335 172.40328137 307.01186494 176.3125 309.25 C177.36002441 309.83128662 177.36002441 309.83128662 178.42871094 310.42431641 C183.9065033 313.58911429 187.59398735 317.06015536 190.375 322.875 C191.46060591 328.30302954 190.86408802 332.33583048 188.3125 337.25 C185.07729926 341.09726574 182.6038098 343.60731232 177.46166992 344.3828125 C168.6845476 344.73521892 163.19306928 342.15174916 155.8125 337.625 C154.81669922 337.04105469 153.82089844 336.45710938 152.79492188 335.85546875 C150.14099972 334.29433807 147.50214752 332.71057278 144.86627197 331.1192627 C141.15869509 328.89571084 137.42721813 326.71251071 133.69921875 324.5234375 C132.9383345 324.07626373 132.17745026 323.62908997 131.39350891 323.16836548 C129.59585895 322.11192651 127.79795746 321.05591556 126 320 C126.15146484 321.26070313 126.30292969 322.52140625 126.45898438 323.8203125 C127.02280032 328.52369462 127.58042178 333.2277944 128.13623047 337.93212891 C128.37706879 339.96325266 128.61955853 341.99418134 128.86376953 344.02490234 C129.21567246 346.95359653 129.5615166 349.8829543 129.90625 352.8125 C130.0156189 353.71178223 130.12498779 354.61106445 130.2376709 355.53759766 C132.14248084 371.90746527 132.14248084 371.90746527 127 379 C121.72735246 383.19659702 117.70522285 384.44701486 111 384 C105.63558154 382.33518048 101.70237843 380.01723491 99 375 C96.7679686 367.57786852 96.39052439 359.64124984 95.70432091 351.96429062 C95.30027585 347.56494137 94.83457973 343.17156006 94.38008404 338.77718925 C93.98643723 334.9376673 93.61483327 331.09833978 93.28881836 327.25244141 C92.96944157 323.49956907 92.59103155 319.75676092 92.17298317 316.01364517 C92.02549605 314.59887668 91.89895532 313.18174504 91.7949276 311.76311874 C91.33033845 305.5629025 90.9352772 300.73017823 86.14863586 296.45082092 C82.92463319 294.31756651 79.48843195 292.65952352 76 291 C74.74901766 290.23807131 73.50940365 289.45616224 72.29614258 288.63549805 C69.16018615 286.61038525 65.98826374 284.64950003 62.8125 282.6875 C61.71486328 281.96626953 60.61722656 281.24503906 59.48632812 280.50195312 C53.83859932 276.85859628 53.83859932 276.85859628 47.40698242 276.45117188 C44.73320703 277.7512473 42.43028054 279.28830198 40 281 C37.99081639 282.16193149 35.97345679 283.3098109 33.94921875 284.4453125 C31.8600943 285.66866187 29.77287193 286.89526484 27.6875 288.125 C26.62982422 288.74503906 25.57214844 289.36507813 24.48242188 290.00390625 C21.65212868 291.66458301 18.82377893 293.3282722 16 295 C14.61772217 295.52049927 14.61772217 295.52049927 13.20751953 296.05151367 C10.538976 298.40692685 10.60679701 299.11531684 10.34057617 302.56323242 C10.29939303 304.49360382 10.28530441 306.4246733 10.29296875 308.35546875 C10.27028679 309.88062859 10.27028679 309.88062859 10.24714661 311.43659973 C10.2041267 314.6871229 10.19541761 317.93672001 10.1875 321.1875 C10.16436689 323.38999883 10.13900404 325.59247545 10.11132812 327.79492188 C10.04833505 333.19662321 10.01351405 338.59796059 10 344 C10.62153458 344.30404755 11.24306915 344.60809509 11.88343811 344.9213562 C14.03701586 346.01886405 15.8662928 347.25926384 17.80859375 348.6953125 C18.91303833 349.50959717 18.91303833 349.50959717 20.03979492 350.34033203 C21.22665894 351.22374268 21.22665894 351.22374268 22.4375 352.125 C23.26934814 352.74101074 24.10119629 353.35702148 24.95825195 353.99169922 C32.12979472 359.3180617 39.24504747 364.71794469 46.33349609 370.15429688 C50.44000094 373.30192631 54.55791512 376.42500378 58.7421875 379.46875 C59.47477783 380.00483887 60.20736816 380.54092773 60.9621582 381.09326172 C62.31139047 382.07723048 63.66627796 383.05351662 65.02807617 384.02001953 C69.77298128 387.49227399 73.46055073 390.95369824 74.53125 397 C74.46758261 403.11206934 74.41415841 407.35351746 70 412 C65.45789264 416.31500199 61.27554527 416.51664753 55.29296875 416.7265625 C46.76931414 414.84589849 39.40128477 407.35669045 32.625 402.125 C25.49615339 396.63557657 18.30064045 391.25933719 11 386 C10.99635437 386.63813629 10.99270874 387.27627258 10.98895264 387.93374634 C10.94708986 394.58526822 10.87771724 401.23610252 10.79248047 407.88720703 C10.76428304 410.36825681 10.74306245 412.84939622 10.72900391 415.33056641 C10.70755838 418.90053147 10.66089658 422.46942028 10.609375 426.0390625 C10.60814636 427.14553131 10.60691772 428.25200012 10.60565186 429.39199829 C10.48858437 435.5700882 10.14214718 439.30499362 6 444 C2.18069828 447.62833663 -0.88279006 448.31000458 -6 448.5 C-11.11720994 448.31000458 -14.18069828 447.62833663 -18 444 C-22.88792495 438.45967566 -22.6014126 433.20972558 -22.609375 426.0390625 C-22.62591125 424.89335785 -22.64244751 423.7476532 -22.65948486 422.56723022 C-22.70794148 418.91976548 -22.72933168 415.27271764 -22.75 411.625 C-22.77816147 409.14711447 -22.80808913 406.66924834 -22.83984375 404.19140625 C-22.91370005 398.12767979 -22.96535637 392.06407047 -23 386 C-23.60991287 386.46790955 -24.21982574 386.93581909 -24.84822083 387.41790771 C-34.55338064 394.86138748 -44.27058238 402.27709738 -54.1875 409.4375 C-54.94659668 409.98623779 -55.70569336 410.53497559 -56.48779297 411.1003418 C-63.17674187 415.90383069 -67.60203055 416.78043957 -76 416 C-80.8846525 413.73212562 -83.73212562 410.8846525 -86 406 C-86.72775082 400.59385102 -87.00972035 395.96262778 -84.47265625 391.03125 C-81.35410305 387.20818952 -77.87045568 384.44792541 -73.9375 381.5 C-73.14384033 380.89397949 -72.35018066 380.28795898 -71.5324707 379.66357422 C-65.19506972 374.84438569 -58.78688885 370.11879089 -52.35742188 365.42333984 C-47.93260138 362.18666559 -43.54966093 358.90377348 -39.203125 355.5625 C-38.24188721 354.82370605 -37.28064941 354.08491211 -36.2902832 353.32373047 C-34.41580354 351.87900956 -32.5444418 350.43023247 -30.67651367 348.97705078 C-29.8332251 348.32720215 -28.98993652 347.67735352 -28.12109375 347.0078125 C-27.3727124 346.42660645 -26.62433105 345.84540039 -25.85327148 345.24658203 C-24 344 -24 344 -22 344 C-18.51094179 318.11704078 -18.51094179 318.11704078 -25.40576172 294.46191406 C-31.36438236 289.32487391 -38.18625448 286.59632119 -45.63134766 284.26611328 C-49.27860885 282.89528442 -51.9893113 281.04325825 -55.16796875 278.80859375 C-59.19995953 276.27784097 -59.19995953 276.27784097 -63.73779297 276.63818359 C-66.66370882 278.23457005 -69.29044846 280.06021271 -72 282 C-74.11997507 283.20618703 -76.2547297 284.38670955 -78.40234375 285.54296875 C-80.58109263 286.75716054 -82.75947552 287.97200927 -84.9375 289.1875 C-86.60135742 290.11079102 -86.60135742 290.11079102 -88.29882812 291.05273438 C-89.89694336 291.94508789 -89.89694336 291.94508789 -91.52734375 292.85546875 C-92.48374756 293.38809326 -93.44015137 293.92071777 -94.42553711 294.46948242 C-95.27510986 294.97455322 -96.12468262 295.47962402 -97 296 C-97.68767456 296.38329468 -98.37534912 296.76658936 -99.0838623 297.16149902 C-101.88479669 299.84894712 -101.80641425 302.12677847 -102.23266602 305.9465332 C-102.31621338 306.64934418 -102.39976074 307.35215515 -102.48583984 308.07626343 C-102.75822326 310.39953934 -103.00564227 312.72481562 -103.25390625 315.05078125 C-103.44089796 316.66901694 -103.62980413 318.28703245 -103.82054138 319.90483093 C-104.31934184 324.16703537 -104.79859229 328.43118081 -105.27185059 332.69628906 C-106.02910534 339.51253595 -106.80550958 346.32643556 -107.6014843 353.13826561 C-107.87462551 355.5135551 -108.13312217 357.89012614 -108.39051819 360.26716614 C-108.55867387 361.73327193 -108.72738181 363.19931451 -108.89672852 364.6652832 C-109.03788589 365.93974808 -109.17904327 367.21421295 -109.32447815 368.52729797 C-110.66524469 375.41986954 -113.47328894 379.05234924 -119 383 C-120.9375 383.8125 -120.9375 383.8125 -123 384 C-124.0725 384.103125 -125.145 384.20625 -126.25 384.3125 C-130.89884756 383.92509604 -134.20155045 382.70020218 -138 380 C-142.44277489 374.41805206 -143.15686375 370.35700417 -142.69140625 363.44140625 C-142.64383682 362.69145889 -142.5962674 361.94151154 -142.54725647 361.1688385 C-141.97259473 352.72412152 -140.97374525 344.33572642 -139.9375 335.9375 C-139.7488765 334.37701016 -139.56072373 332.81646335 -139.37304688 331.25585938 C-138.92075176 327.50323167 -138.4622219 323.75141737 -138 320 C-138.7748877 320.44279297 -139.54977539 320.88558594 -140.34814453 321.34179688 C-145.17089844 324.09765625 -149.99365234 326.85351562 -154.81640625 329.609375 C-155.42454163 329.95711975 -156.032677 330.3048645 -156.65924072 330.66314697 C-157.89616372 331.36947587 -159.13392376 332.07434086 -160.37249756 332.777771 C-163.54454433 334.58178795 -166.69738066 336.41023026 -169.82519531 338.29003906 C-170.4461911 338.65826782 -171.06718689 339.02649658 -171.70700073 339.40588379 C-173.41771309 340.42160218 -175.12192682 341.44824302 -176.82568359 342.47558594 C-181.88916272 344.90723981 -186.54304308 345.11468327 -192 344 C-196.90624714 341.72209954 -199.5167579 338.78254033 -202 334 C-203.48055092 327.88038954 -203.1548149 323.4952442 -200 318 C-194.78122713 312.18249637 -187.57910331 308.73464472 -180.8125 305.0625 C-178.67257379 303.8878171 -176.53324918 302.7120376 -174.39453125 301.53515625 C-172.82372803 300.67301514 -172.82372803 300.67301514 -171.22119141 299.79345703 C-166.10047634 296.94240558 -161.0478049 293.97813122 -156 291 C-159.82160726 287.64888398 -164.31244191 286.0718283 -168.96484375 284.19921875 C-170.75221997 283.46223539 -172.53932101 282.72458433 -174.32617188 281.98632812 C-177.13211995 280.83385448 -179.93983537 279.68655722 -182.75268555 278.55102539 C-185.47564689 277.44870952 -188.18926635 276.3256027 -190.90234375 275.19921875 C-191.73894028 274.86774338 -192.5755368 274.53626801 -193.43748474 274.19474792 C-199.70218532 271.56795654 -203.04313057 268.63418609 -206.3125 262.5625 C-207.91014264 256.60765017 -207.17061793 252.10979129 -204.27734375 246.796875 C-201.65560285 243.10879911 -198.1906716 241.39689053 -194 240 C-186.35254475 239.18327619 -180.7490043 241.79507426 -173.828125 244.85546875 C-172.08991486 245.60344475 -172.08991486 245.60344475 -170.31658936 246.36653137 C-167.24564172 247.69093209 -164.18060503 249.02746318 -161.11779785 250.3704834 C-158.03596733 251.71854507 -154.94751874 253.05124551 -151.859375 254.38476562 C-147.30003062 256.35520282 -142.74475112 258.33455259 -138.19238281 260.32104492 C-137.1700354 260.76169281 -136.14768799 261.2023407 -135.09436035 261.65634155 C-132.96064839 262.5828594 -130.83528901 263.52877134 -128.71716309 264.49038696 C-127.66162231 264.9580246 -126.60608154 265.42566223 -125.51855469 265.9074707 C-124.57743835 266.33332962 -123.63632202 266.75918854 -122.66668701 267.19795227 C-118.98532635 268.30517893 -116.49494102 267.66905535 -113.04980469 266.12719727 C-112.43008789 265.77713623 -111.81037109 265.4270752 -111.171875 265.06640625 C-110.46224609 264.66921387 -109.75261719 264.27202148 -109.02148438 263.86279297 C-108.27189453 263.43369629 -107.52230469 263.00459961 -106.75 262.5625 C-105.96947266 262.12309082 -105.18894531 261.68368164 -104.38476562 261.23095703 C-97.96876265 257.60166378 -91.61510784 253.86376956 -85.30761719 250.04907227 C-80.2145804 247 -80.2145804 247 -78 247 C-78 231.82 -78 216.64 -78 201 C-79.65 200.34 -81.3 199.68 -83 199 C-84.31248711 198.33631934 -85.61262723 197.647587 -86.8984375 196.93359375 C-87.61797607 196.53438721 -88.33751465 196.13518066 -89.07885742 195.72387695 C-90.215448 195.08712036 -90.215448 195.08712036 -91.375 194.4375 C-92.16430908 194.00074951 -92.95361816 193.56399902 -93.7668457 193.11401367 C-97.6672262 190.93930589 -101.50789993 188.71234352 -105.26953125 186.3046875 C-105.93227051 185.88517822 -106.59500977 185.46566895 -107.27783203 185.03344727 C-108.51756517 184.2408232 -109.74725309 183.43217862 -110.96435547 182.60522461 C-114.44564136 180.38664072 -116.76859748 179.71087926 -120.82279968 180.41737366 C-125.72103467 181.7281583 -130.30396679 183.93355649 -134.92578125 185.98828125 C-136.63993477 186.73769234 -136.63993477 186.73769234 -138.38871765 187.50224304 C-141.41739129 188.82788593 -144.44275774 190.16071253 -147.46655273 191.49743652 C-151.70861321 193.37048492 -155.95681756 195.22956141 -160.20414734 197.09062195 C-162.45922076 198.07969759 -164.71320306 199.07126607 -166.96589661 200.06575012 C-171.79542281 202.19231079 -176.63307601 204.29547112 -181.51245117 206.30541992 C-182.66604378 206.78068367 -182.66604378 206.78068367 -183.84294128 207.26554871 C-188.92840371 208.99708454 -193.33664852 208.53252334 -198.25 206.375 C-203.00982924 203.74727502 -205.29616381 200.11150856 -207 195 C-207.57439454 189.14117566 -206.41252162 184.74232947 -203 180 C-198.64653426 175.93794599 -193.7407199 173.93508622 -188.32421875 171.671875 C-186.93648003 171.08107147 -186.93648003 171.08107147 -185.52070618 170.47833252 C-182.57939118 169.22812339 -179.63357889 167.98893547 -176.6875 166.75 C-174.68654177 165.90176595 -172.68588709 165.05281545 -170.68554688 164.203125 C-165.79385005 162.12710541 -160.89841957 160.06010314 -156 158 C-159.36666496 155.1845147 -162.72352337 152.90013336 -166.5703125 150.79296875 C-167.6325 150.20580078 -168.6946875 149.61863281 -169.7890625 149.01367188 C-171.44035156 148.1097168 -171.44035156 148.1097168 -173.125 147.1875 C-198.55421065 133.24097717 -198.55421065 133.24097717 -202.3125 125.1875 C-203.48829946 119.73606613 -202.8808941 115.69653679 -200.3125 110.75 C-197.07729926 106.90273426 -194.6038098 104.39268768 -189.46166992 103.6171875 C-180.6845476 103.26478108 -175.19306928 105.84825084 -167.8125 110.375 C-166.81669922 110.95894531 -165.82089844 111.54289062 -164.79492188 112.14453125 C-162.14099972 113.70566193 -159.50214752 115.28942722 -156.86627197 116.8807373 C-153.15869509 119.10428916 -149.42721813 121.28748929 -145.69921875 123.4765625 C-144.9383345 123.92373627 -144.17745026 124.37091003 -143.39350891 124.83163452 C-141.59585895 125.88807349 -139.79795746 126.94408444 -138 128 C-138.15146484 126.73929687 -138.30292969 125.47859375 -138.45898438 124.1796875 C-139.02280032 119.47630538 -139.58042178 114.7722056 -140.13623047 110.06787109 C-140.37706879 108.03674734 -140.61955853 106.00581866 -140.86376953 103.97509766 C-141.21567246 101.04640347 -141.5615166 98.1170457 -141.90625 95.1875 C-142.0156189 94.28821777 -142.12498779 93.38893555 -142.2376709 92.46240234 C-144.14248084 76.09253473 -144.14248084 76.09253473 -139 69 C-134.20689653 65.18508091 -130.29499935 63.62801472 -124.125 63.71875 C-119.41639267 64.34194803 -116.1399778 66.95245283 -112.6875 70.125 C-108.27910521 77.63559852 -108.4620122 87.55897435 -107.70432091 96.03570938 C-107.30027585 100.43505863 -106.83457973 104.82843994 -106.38008404 109.22281075 C-105.98643723 113.0623327 -105.61483327 116.90166022 -105.28881836 120.74755859 C-104.96944157 124.50043093 -104.59103155 128.24323908 -104.17298317 131.98635483 C-104.02549605 133.40112332 -103.89895532 134.81825496 -103.7949276 136.23688126 C-103.33033845 142.4370975 -102.9352772 147.26982177 -98.14863586 151.54917908 C-94.92463319 153.68243349 -91.48843195 155.34047648 -88 157 C-86.74901766 157.76192869 -85.50940365 158.54383776 -84.29614258 159.36450195 C-81.16018615 161.38961475 -77.98826374 163.35049997 -74.8125 165.3125 C-73.71486328 166.03373047 -72.61722656 166.75496094 -71.48632812 167.49804688 C-65.83859932 171.14140372 -65.83859932 171.14140372 -59.40698242 171.54882812 C-56.73320703 170.2487527 -54.43028054 168.71169802 -52 167 C-49.99081639 165.83806851 -47.97345679 164.6901891 -45.94921875 163.5546875 C-43.8600943 162.33133813 -41.77287193 161.10473516 -39.6875 159.875 C-38.62982422 159.25496094 -37.57214844 158.63492188 -36.48242188 157.99609375 C-33.65212868 156.33541699 -30.82377893 154.6717278 -28 153 C-27.07848145 152.65300049 -26.15696289 152.30600098 -25.20751953 151.94848633 C-22.538976 149.59307315 -22.60679701 148.88468316 -22.34057617 145.43676758 C-22.29939303 143.50639618 -22.28530441 141.5753267 -22.29296875 139.64453125 C-22.27028679 138.11937141 -22.27028679 138.11937141 -22.24714661 136.56340027 C-22.2041267 133.3128771 -22.19541761 130.06327999 -22.1875 126.8125 C-22.16436689 124.61000117 -22.13900404 122.40752455 -22.11132812 120.20507812 C-22.04833505 114.80337679 -22.01351405 109.40203941 -22 104 C-22.62153458 103.69595245 -23.24306915 103.39190491 -23.88343811 103.0786438 C-26.03701586 101.98113595 -27.8662928 100.74073616 -29.80859375 99.3046875 C-30.54489014 98.76183105 -31.28118652 98.21897461 -32.03979492 97.65966797 C-32.8310376 97.07072754 -33.62228027 96.48178711 -34.4375 95.875 C-35.26934814 95.25898926 -36.10119629 94.64297852 -36.95825195 94.00830078 C-44.12979472 88.6819383 -51.24504747 83.28205531 -58.33349609 77.84570312 C-62.44000094 74.69807369 -66.55791512 71.57499622 -70.7421875 68.53125 C-71.47477783 67.99516113 -72.20736816 67.45907227 -72.9621582 66.90673828 C-74.31139047 65.92276952 -75.66627796 64.94648338 -77.02807617 63.97998047 C-81.77298128 60.50772601 -85.46055073 57.04630176 -86.53125 51 C-86.46758261 44.88793066 -86.41415841 40.64648254 -82 36 C-77.45789264 31.68499801 -73.27554527 31.48335247 -67.29296875 31.2734375 C-58.76931414 33.15410151 -51.40128477 40.64330955 -44.625 45.875 C-37.49615339 51.36442343 -30.30064045 56.74066281 -23 62 C-22.99635437 61.36186371 -22.99270874 60.72372742 -22.98895264 60.06625366 C-22.94708986 53.41473178 -22.87771724 46.76389748 -22.79248047 40.11279297 C-22.76428304 37.63174319 -22.74306245 35.15060378 -22.72900391 32.66943359 C-22.70755838 29.09946853 -22.66089658 25.53057972 -22.609375 21.9609375 C-22.60814636 20.85446869 -22.60691772 19.74799988 -22.60565186 18.60800171 C-22.48858437 12.4299118 -22.14214718 8.69500638 -18 4 C-12.72867143 -1.00776214 -6.89190982 -0.92775709 0 0 Z M-12.9296875 182.5625 C-13.89132813 183.11292969 -14.85296875 183.66335937 -15.84375 184.23046875 C-16.8440625 184.81441406 -17.844375 185.39835938 -18.875 186 C-19.83664063 186.55300781 -20.79828125 187.10601562 -21.7890625 187.67578125 C-24.86287879 189.44444539 -27.93134236 191.22240057 -31 193 C-35.62 195.64 -40.24 198.28 -45 201 C-45 216.18 -45 231.36 -45 247 C-39.06 250.3 -33.12 253.6 -27 257 C-18.21119319 262.26726435 -18.21119319 262.26726435 -14.40234375 264.66601562 C-13.26732422 265.34760742 -13.26732422 265.34760742 -12.109375 266.04296875 C-11.45936523 266.44539795 -10.80935547 266.84782715 -10.13964844 267.26245117 C-6.07378097 268.66397851 -2.82420387 267.3976211 0.92504883 265.58886719 C1.92560303 264.99750977 2.92615723 264.40615234 3.95703125 263.796875 C5.07013672 263.14589844 6.18324219 262.49492187 7.33007812 261.82421875 C8.49107791 261.13313579 9.65188421 260.44172766 10.8125 259.75 C13.08950792 258.41088713 15.36684551 257.07233465 17.64453125 255.734375 C19.15043823 254.84057129 19.15043823 254.84057129 20.68676758 253.92871094 C24.75695931 251.55935609 28.88307159 249.28718245 33 247 C33 231.82 33 216.64 33 201 C27.06 197.7 21.12 194.4 15 191 C10.72730873 188.49651513 6.46173539 185.98781037 2.2265625 183.421875 C1.4634375 182.97070312 0.7003125 182.51953125 -0.0859375 182.0546875 C-1.0766626 181.45889893 -1.0766626 181.45889893 -2.08740234 180.85107422 C-6.38987749 178.93654418 -9.1805877 180.39386836 -12.9296875 182.5625 Z " fill="#000000" transform="translate(262,32)"/>
</svg>
