<?xml version="1.0" standalone="no"?>
<!DOCTYPE svg PUBLIC "-//W3C//DTD SVG 20010904//EN"
 "http://www.w3.org/TR/2001/REC-SVG-20010904/DTD/svg10.dtd">
<svg version="1.0" xmlns="http://www.w3.org/2000/svg"
 width="512.000000pt" height="512.000000pt" viewBox="0 0 512.000000 512.000000"
 preserveAspectRatio="xMidYMid meet">

<g transform="translate(0.000000,512.000000) scale(0.100000,-0.100000)"
fill="#000000" stroke="none">
<path d="M2330 5113 c-257 -27 -506 -145 -705 -334 l-72 -69 -59 11 c-83 16
-263 5 -352 -20 -281 -81 -507 -316 -568 -589 -9 -43 -18 -82 -19 -88 -2 -6
-28 -16 -59 -23 -169 -38 -345 -179 -425 -341 -94 -193 -94 -387 0 -580 59
-119 170 -230 289 -289 122 -59 189 -71 423 -71 108 0 197 -1 197 -3 0 -2 -14
-41 -32 -88 -29 -78 -32 -93 -32 -214 -1 -108 3 -142 21 -200 31 -98 87 -187
164 -264 76 -76 147 -121 251 -159 l73 -27 485 -3 c349 -2 486 -6 491 -14 12
-20 21 -125 14 -167 -6 -39 -7 -39 -58 -46 -259 -31 -452 -73 -550 -118 -166
-76 -205 -206 -92 -305 66 -58 184 -103 363 -137 l92 -18 -7 -36 c-5 -20 -8
-85 -8 -146 0 -94 4 -123 29 -198 47 -144 148 -293 338 -500 54 -59 69 -69
105 -74 37 -5 46 -2 73 25 35 35 39 77 15 156 -19 64 -19 206 0 280 39 149
170 313 321 402 l69 41 152 6 c363 16 716 77 856 149 182 92 178 259 -8 348
-66 32 -207 72 -316 90 l-67 12 10 36 c6 21 18 75 28 122 l17 85 414 5 c399 6
416 7 479 29 223 79 387 262 435 487 70 329 -131 660 -458 755 -60 18 -79 28
-81 44 -3 11 -9 52 -16 90 -14 87 -54 223 -75 252 -42 59 -142 46 -171 -23
-14 -33 -13 -41 5 -97 33 -100 50 -186 57 -287 10 -127 23 -142 147 -158 211
-27 361 -168 398 -371 33 -187 -73 -394 -244 -474 -90 -43 -138 -47 -507 -47
l-349 0 16 53 c44 150 132 245 259 283 67 19 99 53 99 106 0 33 -6 45 -33 69
l-32 29 -1170 0 -1170 0 -32 -29 c-27 -24 -33 -36 -33 -69 0 -57 20 -74 159
-141 154 -73 248 -135 344 -227 l77 -73 -395 -1 c-431 0 -468 4 -560 57 -65
38 -136 108 -170 168 -158 275 13 621 330 665 41 6 85 13 98 16 33 7 62 61 62
114 1 166 99 357 235 458 165 123 350 159 546 106 84 -22 108 -13 170 60 248
295 650 418 1024 314 99 -28 156 -29 184 -4 43 39 35 132 -13 158 -11 6 -52
22 -90 34 l-70 22 -23 90 c-52 207 -156 388 -317 548 -112 111 -186 166 -315
229 -199 99 -440 142 -661 118z m377 -228 c328 -83 589 -325 699 -646 13 -40
24 -74 24 -76 0 -2 -33 -3 -72 -3 -295 0 -596 -122 -812 -330 l-83 -80 -59 11
c-33 6 -110 9 -174 6 -95 -4 -132 -10 -211 -37 -273 -91 -476 -311 -541 -585
l-22 -90 -80 -23 c-47 -13 -112 -42 -155 -67 l-73 -45 -267 0 c-292 0 -353 8
-445 58 -160 86 -257 282 -227 460 23 134 101 249 214 316 60 35 167 66 231
66 22 0 45 8 62 23 23 21 28 35 40 130 8 58 23 131 34 161 63 168 219 313 395
369 91 29 260 30 348 3 33 -10 69 -15 84 -11 14 3 66 48 115 99 173 183 365
283 603 315 104 14 260 4 372 -24z m993 -2658 c-56 -104 -75 -164 -104 -338
-47 -276 -76 -375 -135 -466 -67 -102 -197 -210 -340 -282 l-64 -33 -186 1
c-214 1 -401 11 -401 21 0 4 20 50 44 101 116 244 133 446 56 645 -50 131
-165 277 -298 382 l-54 42 761 0 760 0 -39 -73z m-1405 -987 c-25 -49 -49 -90
-55 -90 -26 0 -229 43 -287 61 -46 14 -62 24 -52 29 43 24 335 87 412 89 l27
1 -45 -90z m1476 60 c142 -27 245 -61 225 -72 -32 -18 -210 -58 -344 -78 -200
-29 -195 -30 -132 33 29 28 66 71 83 95 17 23 38 42 48 42 10 0 64 -9 120 -20z
m-1158 -386 c75 -4 137 -10 137 -14 0 -3 -16 -22 -36 -41 -82 -78 -160 -219
-194 -353 -11 -44 -22 -81 -24 -83 -7 -7 -87 125 -113 188 -23 54 -27 79 -27
164 -1 55 3 113 7 129 8 28 9 28 60 23 29 -4 114 -9 190 -13z"/>
<path d="M4125 3833 c-40 -10 -75 -54 -75 -94 0 -45 37 -94 77 -102 56 -11
123 43 123 98 0 32 -32 77 -65 91 -19 8 -36 13 -37 13 -2 -1 -12 -3 -23 -6z"/>
<path d="M830 1541 c-86 -28 -176 -106 -206 -177 -54 -129 -28 -270 66 -364
103 -103 263 -125 386 -54 60 34 130 116 150 176 23 69 16 187 -15 246 -32 62
-82 114 -143 147 -43 24 -67 29 -133 32 -44 1 -91 -1 -105 -6z m150 -206 c55
-28 76 -105 45 -165 -22 -43 -53 -60 -108 -60 -42 0 -54 5 -83 34 -28 28 -34
42 -34 75 0 103 91 162 180 116z"/>
<path d="M4649 961 c-56 -56 -28 -149 51 -166 61 -13 128 54 115 115 -17 79
-110 107 -166 51z"/>
<path d="M1528 754 c-35 -19 -48 -43 -48 -92 0 -33 6 -45 31 -66 19 -17 43
-26 64 -26 21 0 45 9 64 26 25 21 31 33 31 66 0 50 -13 74 -50 93 -36 19 -57
18 -92 -1z"/>
<path d="M3798 632 c-137 -50 -219 -165 -219 -307 0 -135 73 -244 201 -302 56
-26 194 -23 251 6 68 32 120 81 154 142 28 50 30 62 30 154 0 93 -2 104 -31
155 -78 138 -245 203 -386 152z m172 -211 c37 -27 51 -60 47 -109 -11 -108
-140 -145 -212 -61 -18 22 -25 42 -25 73 0 100 110 156 190 97z"/>
</g>
</svg>
