<?xml version="1.0" encoding="UTF-8"?>
<svg version="1.1" xmlns="http://www.w3.org/2000/svg" width="512" height="512">
<path d="M0 0 C0.65335178 -0.00551417 1.30670355 -0.01102833 1.97985387 -0.0167096 C4.1667599 -0.03029323 6.35252698 -0.01541507 8.53941154 -0.00063419 C10.12409078 -0.00452754 11.70876653 -0.01016825 13.29343402 -0.01740509 C17.64644071 -0.03217395 21.99908619 -0.02196994 26.3520813 -0.00766838 C31.04756393 0.00342996 35.74299542 -0.00849766 40.43847466 -0.01751041 C49.63798231 -0.03145459 58.83735284 -0.02387706 68.03685398 -0.00883483 C78.75311066 0.00802034 89.46933312 0.00481542 100.18559895 0.00107109 C119.31234308 -0.0048101 138.43902142 0.0093719 157.56574821 0.03401852 C176.11622906 0.05791985 194.66662193 0.06503093 213.2171154 0.05452633 C233.41802981 0.04310762 253.6189035 0.04120041 273.81981742 0.05562443 C275.97573717 0.05715024 278.13165692 0.0586706 280.28757668 0.06018543 C281.87866265 0.06132215 281.87866265 0.06132215 283.50189177 0.06248184 C290.96684924 0.06721888 298.4317885 0.06537719 305.89674568 0.06112003 C315.00219026 0.05618444 324.10755177 0.06221692 333.21297736 0.08201433 C337.85645654 0.09186256 342.49980945 0.09701831 347.14329529 0.08912182 C351.39975231 0.08203187 355.65595532 0.08894667 359.91237901 0.10672545 C361.44671851 0.11074874 362.98108141 0.10980596 364.51541199 0.10320658 C383.37388482 0.02907901 399.38784305 5.03243764 413.20075798 18.15755367 C426.8188957 31.84565956 431.57122045 47.86605835 431.52473259 66.65877438 C431.30304258 84.38289092 424.67613356 99.39195673 412.13801384 111.9107275 C396.49124177 126.10198589 379.16164231 129.35961762 358.79914665 128.63973141 C342.51827149 127.73945018 327.99657615 118.31347729 317.28254509 106.50057125 C308.08605395 94.52650267 303.2344777 81.78180048 302.90754509 66.81307125 C302.88136101 66.08781246 302.85517693 65.36255367 302.82819939 64.61531734 C302.81220369 59.45522257 303.94121242 56.61910035 307.28254509 52.50057125 C311.10184681 48.87223462 314.16533515 48.19056667 319.28254509 48.00057125 C324.39975503 48.19056667 327.46324337 48.87223462 331.28254509 52.50057125 C335.02111042 57.25489773 335.95934069 60.94905666 336.65754509 66.75057125 C338.0475976 75.96053484 340.73391175 82.96077099 348.22004509 88.93807125 C355.98675908 94.15518084 363.42652105 96.2122126 372.65754509 94.93807125 C381.27558215 93.13318416 388.20820698 88.92814834 393.09895134 81.54354 C393.48953728 80.86936031 393.88012321 80.19518063 394.28254509 79.50057125 C394.62156853 78.91920406 394.96059196 78.33783688 395.30988884 77.7388525 C398.81870217 70.28464539 398.65646235 60.77335647 396.18098259 53.07479 C391.97858331 44.05199155 386.73627041 39.28716119 377.78645134 35.26229 C369.53184985 32.75113978 360.69273405 33.35835123 352.16239738 33.36926937 C350.61709322 33.36756557 349.0717895 33.36541513 347.52648652 33.36285812 C344.17473476 33.35827416 340.82300143 33.35683769 337.47124672 33.35782337 C332.01720521 33.35942036 326.56318191 33.35420516 321.10914421 33.34819698 C313.19170322 33.34009421 305.27426543 33.33514379 297.35682106 33.33190632 C284.84507965 33.32640431 272.3333654 33.30950256 259.82163811 33.29056454 C255.53984456 33.28420837 251.25805094 33.2778999 246.97625732 33.27158737 C245.37132956 33.26921173 245.37132956 33.26921173 243.73397901 33.26678809 C231.56218137 33.24886136 219.39038182 33.23262875 207.21858025 33.21761227 C206.1061882 33.2162364 204.99379615 33.21486052 203.84769525 33.21344296 C185.80418322 33.1914928 167.76067822 33.18075113 149.7171552 33.17324152 C131.19141813 33.16517574 112.66574129 33.14190579 94.14003861 33.10528785 C82.71249823 33.08324695 71.28508164 33.07360304 59.85752107 33.07978819 C52.03161643 33.08295829 44.20581772 33.07166242 36.37994586 33.04889377 C31.862727 33.03620474 27.34574408 33.03008186 22.82851601 33.04131031 C18.69450545 33.05145447 14.56095364 33.04328037 10.42699744 33.02044735 C8.93051152 33.01543998 7.43398464 33.01720583 5.93751846 33.02638002 C3.90482698 33.03786322 1.87203659 33.02239485 -0.16061783 33.00558662 C-1.29012615 33.00460982 -2.41963448 33.00363301 -3.58337033 33.0026266 C-8.57712214 32.2026674 -11.67328515 29.59969732 -15.09245491 26.00057125 C-17.49049066 20.83557117 -17.47127026 16.10034245 -16.71745491 10.50057125 C-13.35478697 3.25790184 -7.8793342 0.00072861 0 0 Z " fill="#4194FF" transform="translate(48.71745491027832,239.49942874908447)"/>
<path d="M0 0 C14.01721588 9.33350638 23.97085468 24.20156056 27.42163086 40.69335938 C29.40151238 53.31219606 29.11121157 67.50101921 23.81640625 79.20947266 C23.10484375 80.81628906 23.10484375 80.81628906 22.37890625 82.45556641 C14.34856639 98.84440906 0.98598798 110.03119998 -16.18359375 116.20947266 C-22.22547665 117.86315439 -27.91240708 118.50161392 -34.15995789 118.47689819 C-35.01687676 118.48142931 -35.87379563 118.48596042 -36.75668174 118.49062884 C-39.60306211 118.5032012 -42.44924939 118.50165717 -45.2956543 118.5 C-47.3463363 118.50598942 -49.39701605 118.51279592 -51.44769287 118.52035522 C-56.99905077 118.53797269 -62.55034696 118.5427086 -68.10173011 118.5439868 C-71.57112564 118.54541049 -75.04050558 118.54968406 -78.50989723 118.55498123 C-90.61573912 118.57346201 -102.72153705 118.58165361 -114.82739258 118.58007812 C-126.11046418 118.57887478 -137.3933451 118.60001994 -148.67636842 118.63156545 C-158.36999082 118.6577014 -168.06355079 118.66844666 -177.75720817 118.66716731 C-183.54432473 118.66665722 -189.33127145 118.67236758 -195.11835289 118.69352341 C-200.55623778 118.71286242 -205.99378989 118.71305992 -211.4316864 118.69849014 C-213.42713722 118.6963961 -215.42260866 118.70113826 -217.41802406 118.71321106 C-220.14180244 118.72862411 -222.86442739 118.7193819 -225.58818054 118.70394897 C-226.37777261 118.7142361 -227.16736468 118.72452323 -227.98088378 118.73512208 C-233.16436404 118.67020669 -236.04260532 117.57993395 -240.18359375 114.20947266 C-243.81193038 110.39017094 -244.49359833 107.32668259 -244.68359375 102.20947266 C-244.49359833 97.09226272 -243.81193038 94.02877438 -240.18359375 90.20947266 C-235.50800934 86.44397621 -231.87144351 85.63231311 -226.01924133 85.70394897 C-225.21333264 85.69785885 -224.40742395 85.69176873 -223.57709378 85.68549407 C-220.88483998 85.66991629 -218.19347867 85.68267347 -215.5012207 85.6953125 C-213.5674636 85.68985058 -211.63371083 85.68260852 -209.69996643 85.67372131 C-205.53878229 85.65838701 -201.37784472 85.65558125 -197.21663857 85.66248703 C-190.63067124 85.67327928 -184.04496107 85.65588298 -177.45903015 85.63467407 C-167.03523686 85.60440891 -156.61151973 85.59271936 -146.18768615 85.58909762 C-127.53944146 85.58245568 -108.89125021 85.55334075 -90.2430703 85.50400126 C-83.70297033 85.48754722 -77.16298112 85.48207821 -70.62286246 85.48559165 C-66.543725 85.4860304 -62.46462892 85.47843848 -58.38550377 85.46891594 C-56.50181623 85.4662456 -54.61812018 85.46696357 -52.73443604 85.47142601 C-32.75697448 85.76208974 -32.75697448 85.76208974 -15.18359375 77.20947266 C-12.79860094 74.72887887 -10.94859744 72.15697056 -9.18359375 69.20947266 C-8.25546875 67.69353516 -8.25546875 67.69353516 -7.30859375 66.14697266 C-4.47103756 58.73874213 -5.12333785 49.04617603 -7.80859375 41.70947266 C-12.30544588 32.34361512 -18.50418814 27.94098996 -28.18359375 24.20947266 C-36.62123174 21.89965227 -44.87837515 23.67740335 -52.43359375 27.83447266 C-59.05408837 32.10609477 -64.15375444 38.49055991 -66.18359375 46.20947266 C-66.52175284 48.56009074 -66.83170968 50.91485284 -67.12109375 53.27197266 C-68.07264681 60.56721279 -69.35808953 63.52524365 -74.68359375 68.58447266 C-79.84859384 70.98250841 -84.58382255 70.96328801 -90.18359375 70.20947266 C-95.1525769 67.90244477 -97.54260873 64.95111591 -100.18359375 60.20947266 C-100.55067823 57.33638626 -100.71119562 54.93619681 -100.62109375 52.08447266 C-100.60498047 51.33311035 -100.58886719 50.58174805 -100.57226562 49.80761719 C-99.99041649 33.20008192 -92.80240541 18.51452806 -81.09375 6.86572266 C-58.72981993 -13.54699204 -25.56208311 -15.76283987 0 0 Z " fill="#4294FF" transform="translate(356.18359375,105.79052734375)"/>
<path d="M0 0 C0.65411169 -0.0055344 1.30822338 -0.01106879 1.98215663 -0.0167709 C4.16085115 -0.03031853 6.33838818 -0.01544151 8.51705933 -0.00050354 C10.08466578 -0.00428912 11.65226888 -0.00979113 13.21986389 -0.01687622 C17.47032133 -0.03082401 21.7203736 -0.01966282 25.97080851 -0.00316501 C30.42949629 0.01071338 34.88816119 0.00422168 39.34686279 0.0007019 C46.84034728 -0.0019997 54.33367157 0.01146531 61.82711792 0.03465271 C70.46693132 0.0612039 79.10647592 0.06302789 87.74631608 0.05126435 C96.07785902 0.04044528 104.40930558 0.04670967 112.74084091 0.06081963 C116.2756264 0.06654961 119.81034066 0.06652026 123.34512711 0.06175423 C127.51982497 0.05694542 131.6942327 0.0672459 135.8688755 0.08870888 C137.39253448 0.09422635 138.91622163 0.09478902 140.43988228 0.08975601 C159.31413346 0.03527786 175.33859538 5.02001375 189.16525269 18.15818787 C202.7833904 31.84629375 207.53571515 47.86669255 207.48922729 66.65940857 C207.26753728 84.38352511 200.64062826 99.39259092 188.10250854 111.91136169 C172.45573648 126.10262008 155.12613701 129.36025181 134.76364136 128.6403656 C118.4827662 127.74008438 103.96107086 118.31411149 93.24703979 106.50120544 C84.05054865 94.52713687 79.19897241 81.78243468 78.87203979 66.81370544 C78.84585571 66.08844666 78.81967163 65.36318787 78.79269409 64.61595154 C78.77669839 59.45585677 79.90570713 56.61973454 83.24703979 52.50120544 C87.06634152 48.87286881 90.12982986 48.19120086 95.24703979 48.00120544 C100.36424973 48.19120086 103.42773807 48.87286881 107.24703979 52.50120544 C110.98560512 57.25553192 111.92383539 60.94969085 112.62203979 66.75120544 C114.01209231 75.96116904 116.69840646 82.96140518 124.18453979 88.93870544 C131.95125379 94.15581503 139.39101576 96.21284679 148.62203979 94.93870544 C157.24007685 93.13381835 164.17270169 88.92878253 169.06344604 81.54417419 C169.45403198 80.86999451 169.84461792 80.19581482 170.24703979 79.50120544 C170.58606323 78.91983826 170.92508667 78.33847107 171.27438354 77.73948669 C174.78319687 70.28527958 174.62095705 60.77399067 172.14547729 53.07542419 C167.94307802 44.05262574 162.70076511 39.28779539 153.75094604 35.26292419 C145.66382245 32.80272279 137.0236264 33.35577426 128.66452026 33.35935974 C127.19526058 33.35632364 125.72600184 33.35280095 124.25674438 33.34883118 C121.10622938 33.34097914 117.9557255 33.33581142 114.80520248 33.33254051 C109.82094654 33.32660289 104.83676093 33.31003891 99.85253906 33.29119873 C98.14276699 33.28486262 96.43299488 33.27853698 94.72322273 33.27222157 C93.86740679 33.26905575 93.01159085 33.26588994 92.12984109 33.2626282 C80.53561862 33.22061456 68.94143109 33.18755185 57.34713745 33.17527771 C49.51172042 33.16689797 41.67648002 33.14441799 33.84115136 33.10592204 C29.69945845 33.08617286 25.55802947 33.07375335 21.41628647 33.07875633 C17.52384192 33.08340188 13.63189881 33.06960313 9.73955536 33.04174423 C8.31335979 33.03483318 6.88711236 33.03470504 5.46091843 33.0419445 C-7.86946543 33.10276807 -7.86946543 33.10276807 -12.75296021 28.50120544 C-16.38129684 24.68190372 -17.06296479 21.61841538 -17.25296021 16.50120544 C-17.06296479 11.38399551 -16.38129684 8.32050716 -12.75296021 4.50120544 C-8.36385485 1.0803592 -5.54906827 0.00099586 0 0 Z " fill="#4194FF" transform="translate(128.75296020507813,287.49879455566406)"/>
<path d="M0 0 C0.95390625 -0.0038269 1.9078125 -0.00765381 2.890625 -0.01159668 C4.90105245 -0.01431036 6.91151553 -0.00698737 8.921875 0.00976562 C11.99038787 0.03118291 15.05655952 0.00994534 18.125 -0.015625 C20.08333848 -0.01298163 22.0416755 -0.00785645 24 0 C25.36898437 -0.01214539 25.36898437 -0.01214539 26.765625 -0.02453613 C32.34723968 0.05719316 35.57473138 0.80813314 40 4.53125 C43.62833663 8.35055172 44.31000458 11.41404006 44.5 16.53125 C44.31000458 21.64845994 43.62833663 24.71194828 40 28.53125 C34.73573631 32.96023965 30.57725694 33.12085225 24 33.0625 C22.56914063 33.06824036 22.56914063 33.06824036 21.109375 33.07409668 C19.09894755 33.07681036 17.08848447 33.06948737 15.078125 33.05273438 C12.00961213 33.03131709 8.94344048 33.05255466 5.875 33.078125 C3.91666152 33.07548163 1.9583245 33.07035645 0 33.0625 C-1.36898437 33.07464539 -1.36898437 33.07464539 -2.765625 33.08703613 C-8.34723968 33.00530684 -11.57473138 32.25436686 -16 28.53125 C-19.62833663 24.71194828 -20.31000458 21.64845994 -20.5 16.53125 C-20.31000458 11.41404006 -19.62833663 8.35055172 -16 4.53125 C-10.73573631 0.10226035 -6.57725694 -0.05835225 0 0 Z " fill="#4194FF" transform="translate(52,287.46875)"/>
<path d="M0 0 C0.95390625 -0.0038269 1.9078125 -0.00765381 2.890625 -0.01159668 C4.90105245 -0.01431036 6.91151553 -0.00698737 8.921875 0.00976562 C11.99038787 0.03118291 15.05655952 0.00994534 18.125 -0.015625 C20.08333848 -0.01298163 22.0416755 -0.00785645 24 0 C25.36898437 -0.01214539 25.36898437 -0.01214539 26.765625 -0.02453613 C32.34723968 0.05719316 35.57473138 0.80813314 40 4.53125 C43.62833663 8.35055172 44.31000458 11.41404006 44.5 16.53125 C44.31000458 21.64845994 43.62833663 24.71194828 40 28.53125 C34.73573631 32.96023965 30.57725694 33.12085225 24 33.0625 C22.56914063 33.06824036 22.56914063 33.06824036 21.109375 33.07409668 C19.09894755 33.07681036 17.08848447 33.06948737 15.078125 33.05273438 C12.00961213 33.03131709 8.94344048 33.05255466 5.875 33.078125 C3.91666152 33.07548163 1.9583245 33.07035645 0 33.0625 C-1.36898437 33.07464539 -1.36898437 33.07464539 -2.765625 33.08703613 C-8.34723968 33.00530684 -11.57473138 32.25436686 -16 28.53125 C-19.62833663 24.71194828 -20.31000458 21.64845994 -20.5 16.53125 C-20.31000458 11.41404006 -19.62833663 8.35055172 -16 4.53125 C-10.73573631 0.10226035 -6.57725694 -0.05835225 0 0 Z " fill="#4194FF" transform="translate(52,191.46875)"/>
</svg>
